<svg version="1.1" id="_x3C_Layer_x3E_" xmlns="http://www.w3.org/2000/svg" xmlns:xlink="http://www.w3.org/1999/xlink" x="0px"
	 y="0px" viewBox="0 0 2760 1840" style="enable-background:new 0 0 2760 1840;" xml:space="preserve">
<rect style="fill:#FFFFFF;" width="2760" height="1840"/>
<g>
	<g>
		<path style="fill:#DEEBE9;" d="M2296.355,1713.023c-202.858,25.627-411.854,14.949-838.889-11.866
			c-239.788-15.058-721.921,9.89-962.577,11.866c-175.449,1.441-317.692-130.739-317.692-292.016V929.092V415.235
			c0-161.276,142.539-301.503,317.692-292.017c162.659,8.81,401.908,43.687,651.309,22.332
			c296.625-25.399,859.64-46.982,1150.157-22.332c174.713,14.825,317.691,130.74,317.691,292.017v1005.773
			C2614.047,1582.284,2470.178,1691.066,2296.355,1713.023z"/>
	</g>
	<g>
		<g>
			<g>
				<path style="fill:#B2C9C6;" d="M970.451,857.666c-7.97,5.688-12.147,4.849-14.377,1.724c-2.229-3.123-1.666-7.348,6.303-13.035
					c14.518-10.362,25.572-9.715,25.572-9.715S985.181,847.153,970.451,857.666z"/>
			</g>
			<g>
				<g>
					<g>
						<path style="fill:#B2C9C6;" d="M986.471,1085.714l-1.854,0.004c0-0.285-0.229-29.044-13.558-70.009
							c-12.3-37.799-38.586-94.019-93.978-147.198l1.282-1.337c55.697,53.473,82.122,110.02,94.482,148.041
							C986.248,1056.438,986.47,1085.426,986.471,1085.714z"/>
					</g>
				</g>
				<g>
					<g>
						<path style="fill:#B2C9C6;" d="M934.336,935.565l-1.642-0.857c31.111-59.677,3.206-126.271,2.922-126.937l1.702-0.73
							C937.606,807.715,965.861,875.095,934.336,935.565z"/>
					</g>
				</g>
				<g>
					<g>
						<path style="fill:#B2C9C6;" d="M903.866,908.098c-18.749,1.675-33.756-6.447-33.927-6.543l0.895-1.622
							c0.19,0.105,19.421,10.484,41.261,4.886l0.461,1.795C909.602,907.371,906.69,907.846,903.866,908.098z"/>
					</g>
				</g>
				<g>
					<g>
						<path style="fill:#B2C9C6;" d="M874.929,858.329c10.553,7.938,11.821,12.784,9.515,15.852
							c-2.307,3.066-7.316,3.192-17.868-4.745c-19.223-14.458-24.337-26.999-24.337-26.999S855.426,843.66,874.929,858.329z"/>
					</g>
				</g>
				<g>
					<g>
						<path style="fill:#B2C9C6;" d="M874.356,895.146c12.454,4.387,15.125,8.625,13.852,12.246
							c-1.276,3.618-6.014,5.248-18.469,0.862c-22.687-7.99-31.344-18.405-31.344-18.405S851.338,887.04,874.356,895.146z"/>
					</g>
				</g>
				<g>
					<g>
						<path style="fill:#B2C9C6;" d="M920.119,877.01c3.072,9.297,1.033,13.038-2.611,14.242c-3.645,1.204-7.512-0.585-10.584-9.882
							c-5.596-16.936-1.703-27.301-1.703-27.301S914.442,859.827,920.119,877.01z"/>
					</g>
				</g>
				<g>
					<g>
						<path style="fill:#B2C9C6;" d="M940.541,799.217c4.207,12.516,2.51,17.231-1.129,18.453
							c-3.638,1.222-7.838-1.51-12.045-14.025c-7.663-22.8-4.779-36.033-4.779-36.033S932.766,776.085,940.541,799.217z"/>
					</g>
				</g>
			</g>
		</g>
	</g>
	<g>
		<ellipse style="fill:#BED5DC;" cx="1402.127" cy="1417.59" rx="1046.211" ry="158.214"/>
	</g>
	<g>
		<path style="fill:#42428E;" d="M800.713,1523.126l-0.592-0.898c0.061-0.041,6.156-4.111,6.996-8.855
			c0.292-1.646-0.095-3.206-1.15-4.634c-0.746-1.011-1.658-1.474-2.766-1.479c-5.288,0.076-12.948,10.99-13.024,11.101l-1.394,2.002
			l0.422-2.402c0.018-0.098,1.672-9.746-1.694-12.627c-1.047-0.897-2.539-1.024-4.438-0.377c-1.996,0.681-3.384,1.929-4.123,3.708
			c-2.209,5.311,1.828,13.693,1.869,13.777l-0.967,0.473c-0.176-0.361-4.289-8.909-1.896-14.663
			c0.864-2.077,2.469-3.528,4.771-4.313c2.282-0.778,4.129-0.585,5.486,0.579c2.801,2.4,2.642,8.36,2.325,11.55
			c2.475-3.199,8.131-9.817,12.649-9.882c1.472,0.022,2.691,0.624,3.646,1.915c1.239,1.675,1.69,3.515,1.345,5.464
			C807.253,1518.763,800.979,1522.949,800.713,1523.126z"/>
	</g>
	<g>
		<path style="fill:#42428E;" d="M2186.299,1404.719l-0.693-1.051c0.072-0.048,7.203-4.812,8.187-10.361
			c0.343-1.927-0.111-3.752-1.346-5.423c-0.86-1.163-1.899-1.73-3.174-1.73c-0.021,0-0.041,0-0.062,0.001
			c-6.185,0.087-15.15,12.859-15.24,12.988l-1.631,2.341l0.494-2.811c0.02-0.113,1.955-11.401-1.982-14.773
			c-1.226-1.052-2.973-1.199-5.194-0.441c-2.336,0.796-3.959,2.256-4.825,4.339c-2.583,6.213,2.141,16.021,2.188,16.12l-1.13,0.552
			c-0.207-0.422-5.019-10.424-2.22-17.155c1.012-2.431,2.889-4.129,5.582-5.047c2.674-0.912,4.832-0.681,6.419,0.677
			c3.278,2.81,3.093,9.783,2.722,13.516c2.895-3.744,9.512-11.488,14.8-11.563c1.698,0.004,3.149,0.729,4.266,2.241
			c1.449,1.96,1.979,4.111,1.573,6.393C2193.95,1399.613,2186.611,1404.513,2186.299,1404.719z"/>
	</g>
	<g>
		<path style="fill:#42428E;" d="M1059.566,1479.969c-0.354-0.233-8.664-5.78-9.886-12.664c-0.458-2.576,0.14-5.006,1.777-7.22
			c1.258-1.703,2.898-2.521,4.804-2.524c6.033,0.085,13.609,9.014,16.841,13.211c-0.429-4.189-0.688-12.225,3.059-15.435
			c1.79-1.533,4.226-1.789,7.241-0.761c3.043,1.038,5.164,2.955,6.307,5.701c3.168,7.619-2.283,18.946-2.517,19.425l-1.21-0.591
			c0.055-0.111,5.418-11.263,2.481-18.319c-0.986-2.372-2.835-4.034-5.496-4.941c-2.534-0.862-4.53-0.691-5.93,0.509
			c-4.487,3.844-2.286,16.665-2.263,16.794l0.53,3.009l-1.745-2.507c-0.102-0.146-10.283-14.649-17.318-14.749
			c-1.502,0.006-2.703,0.626-3.703,1.979c-1.406,1.904-1.924,3.984-1.534,6.182c1.119,6.313,9.222,11.725,9.303,11.779
			L1059.566,1479.969z"/>
	</g>
	<g>
		<path style="fill:#42428E;" d="M1227.609,1357.004c-0.218-2.553-1.152-4.372-2.78-5.409c-3.566-2.273-9.372-0.188-9.431-0.166
			l-2.013,0.737l1.438-1.589c0.042-0.047,4.161-4.644,3.314-7.977c-0.321-1.265-1.363-2.215-3.098-2.823
			c-7.297-2.558-13.285,12.32-13.576,13.059c-0.007,0.017-0.012,0.028-0.013,0.034l-0.985-0.387c0.002-0.007,0.006-0.015,0.01-0.025
			c0.1-0.267,1.19-3.277-0.143-5.347c-0.817-1.27-2.414-1.97-4.745-2.08c-2.184-0.109-3.69,0.408-4.482,1.519
			c-1.53,2.146-0.065,5.89-0.05,5.928l-0.982,0.392c-0.07-0.176-1.689-4.324,0.17-6.934c1.016-1.423,2.836-2.084,5.395-1.961
			c2.695,0.127,4.575,0.992,5.589,2.568c0.503,0.785,0.731,1.655,0.801,2.492c2.394-4.727,7.323-12.374,13.363-10.255
			c2.09,0.733,3.358,1.931,3.772,3.562c0.684,2.697-1.208,5.864-2.489,7.615c2.14-0.513,5.933-1.029,8.721,0.744
			c1.921,1.223,3.021,3.313,3.269,6.213L1227.609,1357.004z"/>
	</g>
	<g>
		<path style="fill:#42428E;" d="M1584.048,1482.596c-0.569-0.579-13.881-14.302-9.05-22.455c0.764-1.287,1.672-1.893,2.727-1.762
			c3.539,0.404,7.416,9.612,9.422,15.099c-0.664-6.853-1.422-20.401,2.33-24.982c0.817-0.997,1.813-1.538,2.962-1.607
			c1.124-0.063,2.038,0.334,2.731,1.191c3.383,4.187,0.326,18.981-1.354,25.903c1.253-2.03,3.031-4.293,4.847-4.553
			c0.865-0.123,1.545,0.198,1.929,0.903c1.097,2.012-0.416,7.142-4.847,12.243l-0.666-0.578c4.354-5.017,5.549-9.752,4.737-11.242
			c-0.207-0.378-0.529-0.521-1.027-0.451c-2.339,0.334-5.065,5.403-5.919,7.328l-0.83-0.298c0.066-0.236,6.528-23.645,2.443-28.7
			c-0.511-0.632-1.159-0.91-1.99-0.865c-0.905,0.056-1.668,0.475-2.331,1.285c-4.751,5.802-1.709,28.113-1.678,28.338l-0.859,0.195
			c-1.575-4.962-6.444-17.925-10-18.331c-0.679-0.072-1.288,0.358-1.866,1.335c-4.487,7.574,8.786,21.249,8.921,21.387
			L1584.048,1482.596z"/>
	</g>
	<g>
		<g>
			<path style="fill:#BED5DC;" d="M1742.785,1531.963c0,0-27.216-27.748-17.852-43.552c9.365-15.804,25.169,33.948,25.169,33.948
				s-8.194-58.829,8.779-59.851c16.975-1.022,0,59.851,0,59.851s6.293-14.193,12.438-15.071c6.146-0.879,4.39,12.035-6.585,24.675
				H1742.785z"/>
		</g>
		<g>
			<path style="fill:#42428E;" d="M1744.735,1532.66c-0.078-0.079-7.866-8.062-14.239-18.143
				c-8.696-13.758-10.768-24.679-6.156-32.461c1.723-2.904,3.785-4.236,6.145-3.972c7.988,0.912,16.741,21.733,21.256,34.088
				c-0.475-4.947-0.974-11.454-1.159-18.302c-0.523-19.438,1.626-32.242,6.388-38.058c1.842-2.247,4.086-3.467,6.674-3.622
				c2.518-0.163,4.594,0.751,6.156,2.686c7.622,9.436,0.732,42.772-3.053,58.371c2.822-4.575,6.83-9.674,10.923-10.258
				c1.936-0.279,3.479,0.444,4.345,2.035c2.471,4.534-0.938,16.094-10.92,27.591l-1.504-1.307
				c9.813-11.303,12.505-21.974,10.676-25.331c-0.466-0.854-1.202-1.176-2.314-1.018c-5.267,0.752-11.414,12.175-13.338,16.513
				l-1.87-0.671c0.038-0.135,3.759-13.545,6.254-28.226c3.266-19.198,3.007-31.802-0.748-36.449
				c-1.15-1.425-2.626-2.052-4.486-1.949c-2.039,0.123-3.758,1.071-5.254,2.897c-10.706,13.075-3.849,63.351-3.777,63.856
				l-1.936,0.439c-3.553-11.18-14.525-40.394-22.538-41.308c-1.52-0.184-2.901,0.808-4.204,3.008
				c-10.11,17.062,19.8,47.884,20.103,48.193L1744.735,1532.66z"/>
		</g>
	</g>
	<g>
		<g>
			<path style="fill:#BED5DC;" d="M2377.571,1389.623c0,0-34.97-35.872-22.938-56.303c12.033-20.431,32.338,43.889,32.338,43.889
				s-10.529-76.055,11.28-77.376c21.809-1.32,0,77.376,0,77.376s8.084-18.35,15.98-19.485c7.896-1.135,5.641,15.56-8.46,31.899
				H2377.571z"/>
		</g>
		<g>
			<path style="fill:#42428E;" d="M2380.069,1390.519c-0.1-0.103-10.105-10.42-18.294-23.453
				c-11.171-17.782-13.832-31.897-7.908-41.954c2.209-3.753,4.855-5.482,7.892-5.137c6.036,0.686,13.123,10.268,21.066,28.479
				c2.414,5.535,4.554,11.068,6.23,15.65c-1.928-19.938-4.159-59.626,6.767-72.963c2.359-2.879,5.234-4.441,8.546-4.642
				c3.238-0.197,5.882,0.962,7.886,3.438c9.835,12.149,0.977,55.289-3.893,75.478c3.628-5.91,8.771-12.488,14.027-13.244
				c2.482-0.355,4.46,0.569,5.576,2.608c3.2,5.847-1.168,20.792-14.019,35.682l-1.942-1.676
				c12.635-14.643,16.08-28.442,13.709-32.774c-0.598-1.091-1.541-1.501-2.959-1.299c-6.764,0.972-14.662,15.739-17.135,21.348
				l-2.411-0.86c0.049-0.173,4.835-17.533,8.043-36.529c4.194-24.842,3.852-41.134-0.992-47.117
				c-1.474-1.822-3.355-2.633-5.736-2.492c-2.604,0.158-4.8,1.371-6.715,3.707c-13.799,16.843-4.977,81.942-4.886,82.599
				l-2.495,0.563c-4.565-14.457-18.666-52.233-28.958-53.404c-1.951-0.218-3.717,1.048-5.391,3.89
				c-12.993,22.063,25.439,61.914,25.83,62.313L2380.069,1390.519z"/>
		</g>
	</g>
	<g>
		<g>
			<path style="fill:#BED5DC;" d="M397.619,1404.321c0,0-35.018-35.701-22.969-56.033c12.049-20.334,32.382,43.679,32.382,43.679
				s-10.543-75.692,11.297-77.007c21.839-1.314,0,77.007,0,77.007s8.096-18.263,16.003-19.393
				c7.906-1.129,5.647,15.485-8.473,31.747H397.619z"/>
		</g>
		<g>
			<path style="fill:#42428E;" d="M400.126,1405.219c-0.1-0.102-10.12-10.37-18.319-23.342
				c-11.188-17.701-13.853-31.753-7.92-41.765c2.214-3.737,4.869-5.456,7.904-5.11c6.041,0.689,13.136,10.228,21.087,28.349
				c2.423,5.519,4.568,11.036,6.249,15.601c-1.93-19.814-4.168-59.283,6.739-72.604c2.369-2.893,5.258-4.46,8.588-4.661
				c3.242-0.188,5.91,0.967,7.92,3.456c9.808,12.141,0.942,55.032-3.929,75.103c3.634-5.887,8.789-12.446,14.056-13.199
				c2.489-0.357,4.476,0.574,5.59,2.618c3.179,5.835-1.208,20.708-14.051,35.499l-1.936-1.681
				c12.627-14.541,16.091-28.271,13.736-32.592c-0.598-1.098-1.543-1.519-2.978-1.308c-6.781,0.969-14.686,15.664-17.16,21.245
				l-2.406-0.863c0.048-0.173,4.835-17.427,8.047-36.315c4.2-24.701,3.867-40.918-0.963-46.897c-1.48-1.833-3.368-2.663-5.773-2.507
				c-2.623,0.157-4.834,1.376-6.759,3.727c-13.773,16.819-4.952,81.509-4.861,82.16l-2.49,0.565
				c-4.569-14.385-18.688-51.972-28.997-53.148c-1.963-0.228-3.732,1.042-5.409,3.87c-13.009,21.952,25.474,61.608,25.864,62.006
				L400.126,1405.219z"/>
		</g>
	</g>
	<g>
		<g>
			<path style="fill:#BED5DC;" d="M1268.905,1463.197c0,0-17.847-18.195-11.705-28.558c6.14-10.364,16.503,22.261,16.503,22.261
				s-5.373-38.576,5.757-39.247c11.131-0.67,0,39.247,0,39.247s4.127-9.308,8.156-9.883c4.03-0.576,2.879,7.893-4.317,16.18
				H1268.905z"/>
		</g>
		<g>
			<path style="fill:#42428E;" d="M1270.184,1463.654c-0.052-0.052-5.158-5.285-9.336-11.896
				c-5.703-9.021-7.062-16.183-4.038-21.285c1.129-1.905,2.479-2.781,4.029-2.604c3.078,0.352,6.694,5.212,10.747,14.448
				c1.234,2.813,2.328,5.624,3.185,7.951c-0.983-10.1-2.125-30.215,3.435-37.004c1.208-1.475,2.68-2.273,4.377-2.376
				c1.651-0.087,3.012,0.493,4.036,1.762c4.999,6.187,0.481,28.048-2.002,38.276c1.852-3,4.479-6.344,7.163-6.728
				c1.273-0.179,2.282,0.294,2.851,1.336c1.62,2.974-0.616,10.554-7.162,18.092l-0.986-0.857c6.435-7.41,8.201-14.407,7.001-16.609
				c-0.305-0.561-0.787-0.772-1.519-0.668c-3.452,0.493-7.483,7.983-8.745,10.829l-1.226-0.44c0.097-0.349,9.646-34.938,3.61-42.41
				c-0.755-0.934-1.714-1.36-2.943-1.278c-1.336,0.08-2.464,0.702-3.444,1.899c-7.021,8.574-2.523,41.542-2.478,41.875l-1.27,0.287
				c-2.329-7.33-9.523-26.487-14.777-27.087c-1.007-0.12-1.903,0.531-2.758,1.973c-6.633,11.192,12.983,31.398,13.183,31.602
				L1270.184,1463.654z"/>
		</g>
	</g>
	<g>
		<g style="opacity:0.6;">
			<path style="fill:#B2C9C6;" d="M1911.299,1146.693c0,0,210.868-744.544,410.749-679.736
				c199.881,64.81-251.845,467.603-306.362,686.289L1911.299,1146.693z"/>
		</g>
		<g>
			<g style="opacity:0.6;">
				<path style="fill:#B2C9C6;" d="M2060.537,1107.648c0,0,258.024-446.393,400.678-370.335
					c142.652,76.059-252.393,259.997-322.566,392.375L2060.537,1107.648z"/>
			</g>
			<g>
				<g>
					<path style="fill:#B2C9C6;" d="M2104.123,1120.362c46.801-92.304,128.992-175.722,189.698-229.446
						c65.815-58.244,121.227-95.082,121.778-95.446l-2.281-3.448c-0.555,0.366-56.209,37.364-122.238,95.798
						c-60.976,53.963-143.549,137.787-190.644,230.673L2104.123,1120.362z"/>
				</g>
			</g>
		</g>
		<g>
			<g>
				<g>
					<path style="fill:#B2C9C6;" d="M2442.995,1185.572c-61.94,17.73-45.244,112.157-118.008,99.221
						c-61.541-10.976-67.005-16.227-86.822,2.599c-6.792,6.454-12.521,13.927-17.243,22.019
						c-5.659,9.699-16.866,24.177-35.045,28.613c-111.064,27.104-275.621-128.957-164.42-228.236
						c8.029-7.169,20.184-10.524,33.685-13.56c73.239-16.411,98.53,16.039,151.088-74.999
						c52.575-91.06,139.92,28.792,189.256,21.128c49.335-7.665,92.09-25.422,134.215,24.619
						C2571.833,1117.06,2504.942,1167.885,2442.995,1185.572z"/>
				</g>
			</g>
			<g style="opacity:0.5;">
				<g>
					<g>
						<path style="fill:#74A1BD;" d="M2065.204,1228.324l-2.589-3.353c1.476-1.143,151.622-114.632,476.974-143.65l0.377,4.223
							C2215.835,1114.454,2066.676,1227.189,2065.204,1228.324z"/>
					</g>
				</g>
				<g>
					<g>
						<path style="fill:#74A1BD;" d="M2259.679,1089.176c-45.521-35.859-55.101-66.071-55.485-67.338l4.053-1.235
							c0.092,0.298,9.699,30.302,54.058,65.244L2259.679,1089.176z"/>
					</g>
				</g>
				<g>
					<g>
						<path style="fill:#74A1BD;" d="M2270.119,1134.305c-13.473-20.488-14.342-51.232-2.52-88.906
							c8.854-28.213,21.84-50.733,21.97-50.957l3.663,2.125c-0.508,0.877-50.548,88.301-19.571,135.413L2270.119,1134.305z"/>
					</g>
				</g>
				<g>
					<g>
						<path style="fill:#74A1BD;" d="M2355.395,1121.32c-5.396-3.945-8.344-6.546-8.477-6.666l2.828-3.153
							c0.617,0.554,62.749,55.257,148.606,47.016l0.403,4.216C2429.574,1169.374,2375.499,1136.018,2355.395,1121.32z"/>
					</g>
				</g>
				<g>
					<g>
						<path style="fill:#74A1BD;" d="M2404.072,1216.322c-21.07-20.614-28.109-42.135-30.303-56.557
							c-2.39-15.699,0.221-26.412,0.332-26.861l4.112,1.028c-0.102,0.411-9.755,41.619,28.824,79.361L2404.072,1216.322z"/>
					</g>
				</g>
			</g>
		</g>
		<g>
			<path style="fill:#B2C9C6;" d="M2046.828,579.465c1.865-19.496,8.615-24.703,16.257-23.972
				c7.642,0.731,13.281,7.123,11.415,26.619c-3.397,35.515-18.876,51.357-18.876,51.357S2043.381,615.497,2046.828,579.465z"/>
		</g>
		<g>
			<path style="fill:#B2C9C6;" d="M2437.643,976.509c20.521-3.521,27.744,1.952,29.125,9.995
				c1.381,8.044-3.605,15.612-24.128,19.133c-37.383,6.415-57.95-5.049-57.95-5.049S2399.714,983.018,2437.643,976.509z"/>
		</g>
		<g>
			<path style="fill:#B2C9C6;" d="M2376.277,944.398c11.059-16.164,19.482-17.46,25.818-13.126
				c6.337,4.334,8.184,12.655-2.874,28.821c-20.142,29.447-41.35,35.832-41.35,35.832S2355.842,974.275,2376.277,944.398z"/>
		</g>
	</g>
	<g>
		<g>
			<path style="fill:#B2C9C6;" d="M815.415,1214.435c0,0-178.125-498.188-311.49-444.776
				c-133.367,53.412,193.325,307.384,240.583,454.053L815.415,1214.435z"/>
		</g>
		<g>
			<g>
				<path style="fill:#9BBCB6;" d="M732.448,1150.432c0,0-207.488-335.454-314.836-274.04
					c-107.347,61.414,198.931,193.051,255.611,292.675L732.448,1150.432z"/>
			</g>
			<g>
				<g>
					<path style="fill:#74A1BD;" d="M699.41,1161.147c-37.894-69.514-102.646-131.426-150.292-171.121
						c-51.655-43.035-94.868-69.941-95.298-70.206l1.666-2.689c0.432,0.268,43.833,27.289,95.656,70.465
						c47.859,39.873,112.912,102.086,151.044,172.037L699.41,1161.147z"/>
				</g>
			</g>
		</g>
		<g>
			<g>
				<g>
					<path style="fill:#CFD3A3;" d="M737.664,1328.507c-39.4-5.294-85.593-9.891-132.982-14.036
						c-4.602-8.205-6.285-15.149-6.285-15.149c-26.076-33.911-21.451-28.773-89.31-24.609c-48.673,2.962-49.439-39.692-66.19-72.435
						c-0.3-0.599-0.614-1.191-0.929-1.785c-6.519-12.156-15.462-22.772-30.207-28.905c-15.643-6.495-31.361-15.492-44.817-26.018
						c-1.119-0.867-2.222-1.752-3.31-2.654c-26.56-21.865-42.962-49.645-29.503-74.884c0.315-0.599,0.65-1.195,1.002-1.783
						c2.46-4.147,5.746-8.228,9.946-12.188c43.781-41.266,80.964-20.524,125.23-8.304c24.477,6.753,63.676-20.872,100.337-31.933
						c0.524-0.16,1.053-0.313,1.576-0.467c29.061-8.397,56.362-5.881,73.232,33.093c0,0.007,0.006,0.008,0.006,0.014
						c0.343,0.791,0.687,1.576,1.026,2.347c37.841,85.91,64.483,59.613,129.083,82.146c12.015,4.199,22.766,8.551,29.346,15.953
						C866.268,1215.906,810.644,1295.21,737.664,1328.507z"/>
				</g>
			</g>
			<g>
				<g>
					<g>
						<path style="fill:#C4C695;" d="M752.413,1250.586l2.721-2.789c-1.228-1.2-126.413-120.766-420.607-181.674l-0.791,3.817
							C626.825,1130.621,751.189,1249.394,752.413,1250.586z"/>
					</g>
				</g>
				<g>
					<g>
						<path style="fill:#C4C695;" d="M589.439,1102.891c45.382-27.951,57.329-54.542,57.814-55.658l-3.572-1.557
							c-0.114,0.263-12.064,26.66-56.289,53.896L589.439,1102.891z"/>
					</g>
				</g>
				<g>
					<g>
						<path style="fill:#C4C695;" d="M575.13,1143.02c14.476-17.295,18.521-45.293,11.702-80.964
							c-5.106-26.712-14.591-48.663-14.688-48.881l-3.571,1.555c0.372,0.856,36.85,86.021,3.566,125.791L575.13,1143.02z"/>
					</g>
				</g>
				<g>
					<g>
						<path style="fill:#C4C695;" d="M498.59,1122.141c5.347-3.034,8.315-5.099,8.449-5.194l-2.25-3.181
							c-0.622,0.441-63.174,43.854-140.748,27.246l-0.814,3.809C425.734,1158.203,478.668,1133.443,498.59,1122.141z"/>
					</g>
				</g>
				<g>
					<g>
						<path style="fill:#C4C695;" d="M444.07,1203.794c21.431-16.606,30.138-35.525,33.668-48.47
							c3.842-14.091,2.59-24.154,2.535-24.577l-3.866,0.505c0.051,0.387,4.513,39.057-34.726,69.462L444.07,1203.794z"/>
					</g>
				</g>
			</g>
		</g>
		<g>
			<path style="fill:#B2C9C6;" d="M373.648,986.166c-11.715-6.572-13.112-12.249-10.536-16.841
				c2.576-4.592,8.148-6.359,19.863,0.213c21.34,11.971,26.991,26.071,26.991,26.071S395.3,998.312,373.648,986.166z"/>
		</g>
	</g>
	<g>
		<g>
			<path style="fill:#F7B686;" d="M838.636,579.239c0,0,31.555-1.456,36.58-49.871c5.165-49.765-51.914,0-51.914,0L838.636,579.239z
				"/>
		</g>
		<g>
			<path style="fill:#F7B686;" d="M806.441,420.5c1.922,0.757,33.861,9.413,48.005,57.583
				c14.143,48.171-33.336,10.192-33.336,10.192L806.441,420.5z"/>
		</g>
		<g>
			<path style="fill:#2F1A31;" d="M764.375,1084.179c0,0,0.435,17.313,12.148,22.196c11.715,4.885,45.658,9.291,32.975,20.422
				c-7.277,6.387-41.576,2.261-51.259,2.26c-9.685,0-18.776,4.22-25.973-2.262c-7.916-7.13,0.001-42.617,0.001-42.617
				s8.357,4.354,15.872,4.158C758.97,1088.055,764.375,1084.179,764.375,1084.179z"/>
		</g>
		<g>
			<path style="fill:#2F1A31;" d="M629.84,1084.175c0,0,0.434,17.314,12.148,22.197c11.716,4.884,45.659,9.292,32.975,20.421
				c-7.277,6.388-41.576,2.261-51.259,2.26c-9.684,0-18.776,4.221-25.972-2.261c-7.916-7.13,0.001-42.618,0.001-42.618
				s8.357,4.354,15.872,4.159C624.433,1088.052,629.84,1084.175,629.84,1084.175z"/>
		</g>
		<g>
			<path style="fill:#6F4975;" d="M851.445,609.57c0,0,2.166,72.469-20.965,211.49c-16.699,100.362-36.411,201.496-46.083,249.982
				c-3.459,17.343-18.047,30.024-35.333,30.718l-9.29,0.372c-18.692,0.751-33.862-15.307-32.496-34.395l23.466-328.023
				l5.785-107.963L851.445,609.57z"/>
		</g>
		<g>
			<path style="fill:#2F1A31;" d="M639.861,673.345c1.066,8.821,50.94,7.749,112.005,0.02
				c61.064-7.729,108.595-20.958,107.528-29.777c-1.066-8.821-50.326-9.893-111.391-2.164
				C686.939,649.152,638.795,664.523,639.861,673.345z"/>
		</g>
		<g>
			<path style="fill:#6F4975;" d="M781.339,661.332L650.97,1080.118c-5.457,17.53-21.238,29.541-39.217,29.849l-7.836,0.134
				c-18.501,0.317-32.645-16.791-29.271-35.405l71.315-393.506c1.035-4.677,4.487-8.396,8.999-9.697
				C679.413,664.44,783.738,644.012,781.339,661.332z"/>
		</g>
		<g>
			<path style="fill:#CFD3A3;" d="M660.249,432.232c0,0,17.347-48.803,79.138-46.583c61.791,2.22,108.449,83.419,120.008,257.938
				c0,0-101.184-22.189-219.714,29.573C639.681,673.16,633.11,503.364,660.249,432.232z"/>
		</g>
		<g>
			<path style="fill:#CFD3A3;" d="M616.854,429.295l43.776,28.019c0,0,112.523,11.258,142.395,5.838
				c29.871-5.419,34.519-27.382,34.519-27.382s-28.417-38.977-82.491-48.658c-5.081-0.916-10.199-1.067-15.663-1.459
				c-9.172-0.651-18.344-0.37-27.335,0.599C658.631,392.018,616.854,429.295,616.854,429.295z"/>
		</g>
		<g>
			<path style="fill:#020202;" d="M723.072,848.513l-2.083-0.686l28.036-85.231c6.475-19.682,19.795-36.108,37.506-46.257
				l1.091,1.902c-17.24,9.879-30.209,25.873-36.513,45.041L723.072,848.513z"/>
		</g>
		<g>
			<g>
				<path style="fill:#E28569;" d="M781.763,374.78l-0.165-0.7c0.079-0.019,7.953-1.942,10.18-7.311
					c1.156-2.786,0.605-6.045-1.636-9.688c-1.055-1.713-2.026-3.263-2.916-4.681c-6.133-9.779-8.429-13.438-6.748-21.442
					l0.703,0.147c-1.621,7.721,0.465,11.045,6.653,20.914c0.891,1.42,1.864,2.972,2.919,4.687c2.37,3.851,2.938,7.331,1.687,10.342
					C790.07,372.756,782.102,374.701,781.763,374.78z"/>
			</g>
			<g>
				<path style="fill:#E28569;" d="M780.828,331.032c0,0-2.736,12.393,5.474,25.364c8.21,12.971-0.726,22.45-11.849,17.461
					c-11.123-4.989-15.363,9.191-29.582,1.353C730.652,367.372,780.828,331.032,780.828,331.032z"/>
			</g>
			<g>
				<path style="fill:#F7B686;" d="M715.112,385.83c6.144-0.658,11.481-4.514,13.925-10.189l7.658-17.784l2.222-5.162l13.066-30.35
					l-2.265,31.452l-1.362,18.878l-0.389,5.382c-0.316,4.391,2.752,8.276,7.086,9.055l0.076,0.014
					c2.325,3.781,5.536,11.468-4.06,14.52c-11.275,3.589-29.512-5.287-36.057-15.806
					C715.047,385.837,715.079,385.833,715.112,385.83z"/>
			</g>
			<g>
				<path style="fill:#2F1A31;" d="M736.663,357.335c0.005,0.173,0.017,0.347,0.032,0.521c0.749,10.139,11.596,14.875,11.596,14.875
					l0.065-0.056l1.362-18.878c-3.316-1.214-8.039-2.463-10.802-1.103C737.473,353.405,736.564,354.828,736.663,357.335z"/>
			</g>
			<g>
				<path style="fill:#F7B686;" d="M782.963,327.375c0-20.135-13.231-36.457-29.551-36.457c-16.321,0-29.552,16.323-29.552,36.457
					c0,20.135,13.23,36.457,29.552,36.457C769.732,363.832,782.963,347.51,782.963,327.375z"/>
			</g>
			<g>
				<path style="fill:#F7B686;" d="M727.813,332.874c3.347,3.196,8.026,3.523,10.453,0.732c2.427-2.792,1.681-7.646-1.667-10.843
					c-3.347-3.196-8.028-3.523-10.454-0.731C723.719,324.823,724.466,329.678,727.813,332.874z"/>
			</g>
			<g>
				<path style="fill:#DB6B49;" d="M769.326,350.967c0,0-10.095,0.233-20.19-3.313c0,0-0.839,9.949,10.095,10.616
					C765.589,358.658,769.326,350.967,769.326,350.967z"/>
			</g>
			<g>
				<path style="fill:#FFFFFF;" d="M769.326,350.967c0,0-2.443,2.027-8.142,2.002c-5.699-0.025-12.048-5.315-12.048-5.315
					S761.3,350.996,769.326,350.967z"/>
			</g>
			<g>
				<g>
					<path style="fill:#060633;" d="M756.269,327.727c0.197-0.053,0.367-0.195,0.448-0.399c0.139-0.344-0.028-0.735-0.372-0.873
						c-0.203-0.082-4.728-2.408-8.702,1.939c-0.25,0.274-0.245,0.695,0.024,0.951c0.268,0.255,0.642,0.184,0.95-0.024
						c3.088-2.075,7.058-1.685,7.227-1.619C755.985,327.759,756.134,327.764,756.269,327.727z"/>
				</g>
			</g>
			<g>
				<path style="fill:#060633;" d="M750.952,335.114c-0.052,1.603,0.85,2.933,2.014,2.97c1.163,0.037,2.148-1.233,2.199-2.836
					c0.051-1.604-0.852-2.933-2.015-2.97C751.986,332.24,751.002,333.51,750.952,335.114z"/>
			</g>
			<g>
				<g>
					<path style="fill:#060633;" d="M780.263,331.23c0.202,0.026,0.413-0.041,0.565-0.198c0.259-0.266,0.254-0.69-0.011-0.949
						c-0.157-0.152-3.453-4.027-8.784-1.521c-0.337,0.158-0.493,0.549-0.341,0.888c0.151,0.339,0.523,0.414,0.889,0.34
						c3.643-0.743,7.167,1.13,7.297,1.256C779.987,331.152,780.122,331.213,780.263,331.23z"/>
				</g>
			</g>
			<g>
				<path style="fill:#060633;" d="M772.53,336.035c-0.657,1.463-0.329,3.036,0.731,3.513c1.063,0.477,2.456-0.322,3.114-1.785
					c0.657-1.463,0.33-3.036-0.732-3.513C774.582,333.772,773.189,334.572,772.53,336.035z"/>
			</g>
			<g>
				<path style="fill:#E28569;" d="M765.959,297.526c0,0-0.636,12.649-16.433,14.806c-15.798,2.157-26.692,8.84-24.571,20.22
					c2.122,11.38,27.585,34.989,8.871,44.133c-18.714,9.145-14.732-7.907-35.021-3.953c-20.288,3.953-23.947-23.139-9.979-38.862
					c13.97-15.723,8.312-57.329,60.699-55.484c52.387,1.845,33.192,43.641,33.192,43.641S765.929,311.495,765.959,297.526z"/>
			</g>
			<g>
				<path style="fill:#FFFFFF;" d="M728.438,379.026l-0.159-0.395c3.864-1.56,6.138-3.772,6.95-6.761
					c2.246-8.28-7.572-21.006-16.234-32.234c-2.297-2.978-4.468-5.792-6.393-8.48c-5.36-7.483-5.833-16.412-1.235-23.301
					c5.108-7.652,14.815-10.891,25.337-8.451c10.165,2.356,17.146,0.242,21.213-1.948c4.406-2.373,6.438-5.342,6.458-5.372
					l0.354,0.238c-0.081,0.121-8.381,12.076-28.121,7.497c-10.345-2.397-19.879,0.772-24.887,8.272
					c-4.565,6.84-4.106,15.369,1.227,22.816c1.921,2.681,4.089,5.492,6.385,8.467c8.723,11.307,18.609,24.122,16.308,32.606
					C734.804,375.065,732.38,377.435,728.438,379.026z"/>
			</g>
			<g>
				<g>
					<path style="fill:#6F4975;" d="M778.207,355.124c-1.568,0-3.098-0.438-4.523-1.331c-6.357-3.953-8.752-15.888-5.34-26.587l0,0
						c2.09-6.557,5.995-11.46,10.433-13.094c2.651-0.97,5.313-0.741,7.678,0.76c6.357,3.934,8.753,15.85,5.341,26.569
						c-2.09,6.576-5.996,11.479-10.434,13.113C780.308,354.934,779.253,355.124,778.207,355.124z M769.598,327.624
						c-3.24,10.148-1.093,21.399,4.789,25.067c1.985,1.235,4.248,1.425,6.519,0.628c4.066-1.501,7.669-6.101,9.636-12.277
						c3.24-10.168,1.102-21.419-4.78-25.067c-1.995-1.235-4.237-1.445-6.528-0.627C775.166,316.848,771.564,321.429,769.598,327.624
						L769.598,327.624z"/>
				</g>
			</g>
			<g style="opacity:0.3;">
				<path style="fill:#FFFFFF;" d="M734.156,320.249c-2.37,10.41,1.42,21.586,8.465,24.964c7.045,3.377,14.678-2.323,17.049-12.733
					c2.371-10.41-1.417-21.586-8.463-24.964C744.161,304.139,736.528,309.839,734.156,320.249z"/>
			</g>
			<g style="opacity:0.3;">
				<path style="fill:#FFFFFF;" d="M768.061,328.08c-2.377,10.457,0.788,21.797,7.069,25.328c6.281,3.531,13.3-2.084,15.678-12.542
					c2.377-10.457-0.788-21.797-7.069-25.328C777.457,312.008,770.438,317.623,768.061,328.08z"/>
			</g>
			<g>
				<g>
					<path style="fill:#6F4975;" d="M747.6,346.515c-1.588,0-3.174-0.361-4.713-1.102c-7.773-3.63-11.982-15.641-9.389-26.778l0,0
						c1.492-6.462,4.951-11.441,9.482-13.646c3.165-1.52,6.472-1.539,9.599-0.076c7.763,3.648,11.974,15.66,9.388,26.777
						c-1.501,6.48-4.97,11.46-9.511,13.665C750.858,346.115,749.225,346.515,747.6,346.515z M747.876,305.141
						c-1.455,0-2.908,0.342-4.315,1.027c-4.115,2.014-7.403,6.784-8.791,12.771l0,0c-2.45,10.548,1.436,21.893,8.667,25.295
						c2.746,1.254,5.673,1.235,8.438-0.057c4.124-1.996,7.422-6.785,8.818-12.79c2.443-10.547-1.443-21.893-8.665-25.295
						C750.669,305.464,749.271,305.141,747.876,305.141z"/>
				</g>
			</g>
			<g>
				<g>
					<path style="fill:#6F4975;" d="M769.455,331.976c-0.275,0-0.551-0.095-0.779-0.285l0,0c-0.133-0.114-3.316-2.603-8.809-1.558
						c-0.646,0.095-1.311-0.304-1.444-0.97c-0.133-0.665,0.304-1.311,0.969-1.425c6.634-1.387,10.672,1.919,10.852,2.053
						c0.514,0.437,0.589,1.216,0.152,1.729C770.158,331.824,769.807,331.976,769.455,331.976z"/>
				</g>
			</g>
		</g>
		<g>
			<path style="fill:#2F1A31;" d="M616.231,430.262c-1.518,4.408,9.93,12.657,25.571,18.427c15.642,5.77,29.552,6.875,31.07,2.468
				c1.519-4.408-9.931-12.657-25.571-18.428C631.661,426.959,617.749,425.854,616.231,430.262z"/>
		</g>
		<g>
			<g>
				<path style="fill:#F7B686;" d="M723.602,582.739l0.523-31.99c0.071-4.37-3.292-8.035-7.652-8.348
					c-22.176-1.586-37.698-8.464-46.203-20.49c-11.809-16.7-10.563-42.638-7.273-60.626c1.684-9.205-1.354-15.361-12.474-21.262
					c0,0-9.566-5.263-21.361-7.271c-4.726-0.805-9.415,1.094-10.636,5.729c-1.907,7.256-4.377,18.542-5.556,31.823
					c-2.798,31.545,3.286,58.982,17.596,79.351c17.562,24.998,45.873,38.829,84.231,41.179
					C719.508,591.123,723.525,587.456,723.602,582.739z"/>
			</g>
		</g>
		<g style="opacity:0.5;">
			<path style="fill:#E08B65;" d="M642.056,541.319c-0.852,0-1.75-0.139-2.676-0.421c-2.467-0.749-4.854-2.439-6.722-4.76
				c-3.951-4.907-4.33-11.184-0.843-13.992c3.487-2.807,9.539-1.1,13.49,3.807c3.951,4.906,4.329,11.184,0.842,13.991
				C645.017,540.856,643.613,541.319,642.056,541.319z M635.894,522.934c-1.042,0-1.987,0.284-2.734,0.884
				c-2.521,2.032-1.986,7.059,1.169,10.976l0,0c1.601,1.987,3.615,3.428,5.675,4.054c1.913,0.581,3.617,0.378,4.798-0.573
				c2.522-2.03,1.987-7.056-1.167-10.975C641.412,524.54,638.378,522.934,635.894,522.934z"/>
		</g>
		<g>
			<path style="fill:#6F4975;" d="M688.96,663.785c0,0,121.871-23.281,161.386-12.3l-18.948,28.082l-70.442,3.985L688.96,663.785z"
				/>
		</g>
		<g>
			<g>
				<path style="fill:#2F1A31;" d="M738.171,545.466l105.052,0.04c2.199,0,4.152-1.398,4.847-3.47l21.856-65.187
					c1.102-3.283-1.358-6.673-4.843-6.674l-101.025-0.039c-4.604-0.001-8.691,2.924-10.146,7.263l-20.584,61.394
					C732.227,542.075,734.686,545.465,738.171,545.466z"/>
			</g>
			<g>
				<path style="fill:#2F1A31;" d="M744.764,545.469l105.052,0.039c2.2,0.001,4.153-1.396,4.848-3.469l21.856-65.188
					c1.1-3.283-1.36-6.673-4.845-6.674l-101.023-0.039c-4.604-0.002-8.692,2.925-10.147,7.263l-20.583,61.394
					C738.819,542.078,741.279,545.467,744.764,545.469z"/>
			</g>
			<g>
				<path style="fill:#DEEBE9;" d="M818.387,505.692c0.001-2.475-2.854-3.485-5.347-3.485c-2.493-0.002-6.563,2.714-6.54,6.182
					c0.027,3.743,2.953,4.231,5.445,4.232C814.438,512.621,818.385,508.844,818.387,505.692z"/>
			</g>
			<g>
				<path style="fill:#436E8E;" d="M752.249,503.093l-0.659-0.176c0.212-0.798,5.235-19.602,8.616-25.683
					c3.43-6.166,7.624-7.377,7.802-7.425l0.182,0.657c-0.042,0.011-4.107,1.204-7.387,7.1
					C757.462,483.571,752.301,502.897,752.249,503.093z"/>
			</g>
			<g>
				<polygon style="fill:#436E8E;" points="741.638,534.745 740.991,534.529 749.188,510.081 749.834,510.297 				"/>
			</g>
		</g>
		<g>
			<g>
				<path style="fill:#F7B686;" d="M875.848,522.185c0,0,1.74,13.684-9.838,14.984c-14.752,1.654-34.973-11.554-25.642-12.741
					c8.271-1.053,20.429,0.491,20.429,0.491s-30.869-4.389-27.997-10.955c2.873-6.566,29.377-2.404,29.377-2.404
					s-29.751-7.315-25.148-12.52c4.603-5.205,28.687-1.588,28.687-1.588s-29.393-5.472-23.912-11.38
					c5.482-5.906,20.228,0.226,26.99,1.303c6.39,1.017,7.956,5.764,6.762,12.306c0,0,2.348,7.354,0.56,11.387
					c-0.685,1.547,0.571,3.391,0.568,4.61C876.679,518.011,875.848,522.185,875.848,522.185z"/>
			</g>
		</g>
		<g>
			<g>
				<g>
					<path style="fill:#F7B686;" d="M708.33,540.372c0,0,7.787-23.569,21.123-29.341c13.335-5.771,34.732-3.061,27.226,2.272
						c-7.506,5.332-18.98,9.496-18.98,9.496s24.932-7.743,24.217-1.129c-0.714,6.615-22.462,13.142-22.462,13.142
						s30.401-6.852,27.704-0.82c-2.698,6.03-25.829,11.07-25.829,11.07s28.539-5.243,25.241,1.688
						c-3.298,6.932-23.612,4.181-24.327,10.795c-0.714,6.615-5.787,32.649-24.417,32.909L708.33,540.372z"/>
				</g>
			</g>
			<g>
				<path style="fill:#DD8964;" d="M728.81,528.277l-0.969-0.46c2.052-4.316,9.461-5.5,9.775-5.548l0.163,1.061
					C737.709,523.342,730.618,524.476,728.81,528.277z"/>
			</g>
			<g>
				<path style="fill:#DD8964;" d="M728.692,541.398l-0.859-0.642c4.047-5.412,11.245-6.435,11.55-6.475l0.143,1.061
					C739.455,535.352,732.464,536.354,728.692,541.398z"/>
			</g>
			<g>
				<path style="fill:#DD8964;" d="M731.319,551.136l-1.005-0.377c1.798-4.786,10.561-6.169,10.933-6.227l0.161,1.061
					C741.324,545.606,732.896,546.938,731.319,551.136z"/>
			</g>
		</g>
		<g>
			<path style="fill:#DD8964;" d="M864.317,537.925c-4.45,0-9.431-1.226-9.749-1.305l0.261-1.04
				c3.168,0.791,11.983,2.351,14.685,0.107l0.685,0.825C868.921,537.574,866.695,537.925,864.317,537.925z"/>
		</g>
	</g>
	<g>
		<g>
			<g>
				<path style="fill:#CFD3A3;" d="M2124.928,1061.857l-314.309,0.72l-357.813,8.914l-0.929,26.943l346.102-15.04
					c34.782,1.199,61.913,33.06,60.6,71.162l0,0c-1.314,38.104-30.577,68.02-65.357,66.818l-345.173-11.903l-0.687,19.901
					l672.782,29.665c45.15,1.556,83.134-43.739,84.841-93.198l0,0C2206.689,1116.38,2170.079,1063.414,2124.928,1061.857z"/>
			</g>
			<g>
				<path style="fill:#CFD3A3;" d="M1889.282,1154.952L1889.282,1154.952c1.706-49.46-33.513-90.817-78.663-92.375l-357.813,8.914
					l-0.929,26.943l346.102-15.04c34.782,1.199,61.913,33.06,60.6,71.162l0,0c-1.314,38.104-30.577,68.02-65.357,66.818
					l-345.173-11.903l-0.687,32.261l357.081-0.045C1849.593,1243.244,1887.577,1204.412,1889.282,1154.952z"/>
			</g>
			<g>
				<path style="fill:#E6EDFF;" d="M1797.976,1083.468l-346.099,14.967l0,0c31.221,5.03,40.617,36.763,44.931,53.694
					c8.747,34.332-17.254,54.077-48.746,56.945l-0.017,0.472l345.173,11.903c34.781,1.199,64.043-28.716,65.357-66.818l0,0
					C1859.889,1116.527,1832.758,1084.668,1797.976,1083.468z"/>
			</g>
			<g>
				
					<rect x="1686.048" y="1067.663" transform="matrix(0.0232 -0.9997 0.9997 0.0232 476.9551 2830.5947)" style="fill:#2F1A31;" width="1.883" height="207.12"/>
			</g>
			<g>
				<g>
					<path style="fill:#B7B784;" d="M1867.368,1210.468c-0.997-0.001-1.975-0.422-2.571-1.196c-0.943-1.23-0.56-2.893,0.854-3.716
						c0.228-0.13,22.564-13.537,26.195-51.07c3.604-37.29-26.525-51.63-26.83-51.769c-1.511-0.695-2.08-2.317-1.282-3.625
						c0.808-1.312,2.675-1.795,4.179-1.11c1.394,0.642,34.032,16.177,30.091,56.953c-3.899,40.315-27.914,54.506-28.937,55.092
						C1868.543,1210.324,1867.952,1210.469,1867.368,1210.468z"/>
				</g>
			</g>
			<g>
				
					<rect x="1556.513" y="1149.057" transform="matrix(0.9999 -0.0156 0.0156 0.9999 -17.687 25.5457)" style="fill:#2F1A31;" width="154.335" height="1.884"/>
			</g>
			<g>
				<g>
					<path style="fill:#B7B784;" d="M1958.77,1203.885c-0.033,0-0.068-0.003-0.104-0.003l-55.38-1.908
						c-1.086-0.038-2.072-0.646-2.599-1.597c-0.524-0.954-0.511-2.113,0.037-3.051c0.099-0.166,9.675-16.705,15.258-38.95
						c5.376-21.416-9.2-43.724-9.348-43.948c-0.643-0.964-0.69-2.206-0.123-3.214c0.563-1.012,1.54-1.524,2.804-1.582l52.541,1.81
						c0.969,0.034,1.869,0.521,2.426,1.319c32.825,47.018-2.797,89.616-3.16,90.04
						C1960.533,1203.49,1959.671,1203.886,1958.77,1203.885z M1908.469,1195.968l48.867,1.683
						c5.203-6.726,28.904-41.152,2.744-80.086l-45.413-1.564c4.396,8.385,11.78,26.078,7.312,43.877
						C1917.867,1176.262,1911.808,1189.426,1908.469,1195.968z"/>
				</g>
			</g>
		</g>
		<g>
			<g>
				<path style="fill:#436E8E;" d="M1451.094,1237.712l315.89,0.337l357.271,21.621l-0.028,26.959l-345.349-27.328
					c-34.803-0.036-63.05,30.84-63.091,68.966l0,0c-0.04,38.125,28.141,69.061,62.943,69.099l345.377,0.367l-0.021,19.913
					l-673.183-0.718c-45.178-0.048-81.757-40.205-81.704-89.694l0,0C1369.251,1277.743,1405.917,1237.664,1451.094,1237.712z"/>
			</g>
			<g>
				<path style="fill:#436E8E;" d="M1685.088,1327.569L1685.088,1327.569c0.052-49.489,36.718-89.569,81.896-89.521l357.271,21.621
					l-0.028,26.959l-345.349-27.328c-34.803-0.036-63.05,30.84-63.091,68.966l0,0c-0.04,38.125,28.141,69.061,62.943,69.099
					l345.377,0.367l-0.021,19.913l-357.294-0.381C1721.615,1417.217,1685.035,1377.059,1685.088,1327.569z"/>
			</g>
			<g>
				<path style="fill:#E6EDFF;" d="M1778.877,1259.375l345.349,27.254l0,0c-31.38,3.918-41.898,35.297-46.811,52.063
					c-9.962,34.001,15.321,54.658,46.692,58.643l-0.001,0.473l-345.377-0.368c-34.803-0.037-62.983-30.975-62.943-69.099l0,0
					C1715.827,1290.215,1744.074,1259.338,1778.877,1259.375z"/>
			</g>
			<g>
				
					<rect x="1935.184" y="1215.794" transform="matrix(0.0011 -1 1 0.0011 578.8773 3289.8564)" style="fill:#2F1A31;" width="1.883" height="278.772"/>
			</g>
			<g>
				
					<rect x="1969.584" y="1226.198" transform="matrix(0.0511 -0.9987 0.9987 0.0511 538.3986 3233.0876)" style="fill:#2F1A31;" width="1.884" height="214.057"/>
			</g>
		</g>
		<g>
			<g>
				<path style="fill:#E28569;" d="M1442.785,892.851l321.773-6.465l364.385,14.323l0.552,27.461l-352.363-20.393
					c-35.45,0.713-63.558,32.773-62.776,71.608v0.001c0.779,38.835,30.151,69.739,65.602,69.027l351.813-7.069l0.408,20.284
					l-685.724,13.778c-46.02,0.925-84.146-39.191-85.157-89.603l0,0C1360.283,935.392,1396.767,893.776,1442.785,892.851z"/>
			</g>
			<g>
				<path style="fill:#E28569;" d="M1683.07,979.338L1683.07,979.338c-1.014-50.412,35.471-92.027,81.488-92.952l364.385,14.323
					l0.552,27.461l-352.363-20.393c-35.45,0.713-63.558,32.773-62.776,71.608v0.001c0.779,38.835,30.151,69.739,65.602,69.027
					l351.813-7.069l0.408,20.284l-363.95,7.313C1722.209,1069.865,1684.082,1029.749,1683.07,979.338z"/>
			</g>
			<g>
				<path style="fill:#E6EDFF;" d="M1777.134,907.854l352.361,20.316l0,0c-31.879,4.668-41.916,36.857-46.56,54.041
					c-9.414,34.848,16.785,55.345,48.826,58.728l0.01,0.48l-351.813,7.069c-35.45,0.713-64.822-30.193-65.602-69.027l0,0
					C1713.576,940.625,1741.683,908.565,1777.134,907.854z"/>
			</g>
			<g>
				
					<rect x="1797.362" y="1001.091" transform="matrix(0.9998 -0.0193 0.0193 0.9998 -19.0067 37.6741)" style="fill:#2F1A31;" width="284.022" height="1.92"/>
			</g>
			<g>
				<g>
					<path style="fill:#D3715B;" d="M1691.359,1038.33c-0.545,0-1.096-0.158-1.58-0.488c-0.918-0.625-22.517-15.804-25.456-58.066
						c-2.973-42.747,26.902-58.584,28.176-59.237c1.378-0.71,3.072-0.163,3.78,1.217c0.707,1.379,0.165,3.068-1.211,3.777
						c-1.142,0.594-27.85,14.924-25.141,53.853c2.752,39.573,22.813,53.677,23.015,53.815c1.281,0.873,1.613,2.62,0.739,3.902
						C1693.138,1037.9,1692.256,1038.33,1691.359,1038.33z"/>
				</g>
			</g>
			<g>
				
					<rect x="1972.981" y="869.903" transform="matrix(0.0299 -0.9996 0.9996 0.0299 936.3442 2922.6995)" style="fill:#2F1A31;" width="1.92" height="218.089"/>
			</g>
			<g>
				<g>
					<path style="fill:#D3715B;" d="M1618.004,1023.125c-7.605,0.001-14.492-4.119-18.045-10.828
						c-6.346-11.983-14.916-36.045-1.017-62.541c3.358-6.401,10.075-10.47,17.531-10.621l0,0l11.35-0.228
						c6.327-0.12,12.27,2.614,16.28,7.52c3.975,4.863,5.47,11.157,4.101,17.267c-1.517,6.776-1.601,13.119-0.249,18.853
						c1.039,4.408,2.334,8.915,3.849,13.398c2.093,6.191,1.133,12.816-2.633,18.178c-3.796,5.402-9.76,8.577-16.361,8.709
						l-14.382,0.289C1618.287,1023.125,1618.146,1023.125,1618.004,1023.125z M1616.586,944.751
						c-5.408,0.108-10.264,3.026-12.67,7.614c-12.703,24.216-4.821,46.297,1.007,57.303c2.621,4.947,7.785,7.975,13.392,7.838
						l14.382-0.289c4.794-0.097,9.123-2.401,11.878-6.324c2.727-3.879,3.422-8.672,1.908-13.148
						c-1.571-4.65-2.915-9.329-3.995-13.908c-1.547-6.566-1.468-13.756,0.236-21.369c0.989-4.416-0.093-8.967-2.969-12.485
						c-2.911-3.561-7.255-5.563-11.818-5.458L1616.586,944.751z"/>
				</g>
			</g>
		</g>
	</g>
	<g>
		<g>
			<path style="fill:#E28569;" d="M1181.919,1132.055l-295.775-8.883l-335.207,7.824l-0.844,22.684l324.229-12.972
				c32.587,0.979,58.037,27.777,56.845,59.856l0,0c-1.193,32.079-28.578,57.29-61.164,56.312l-323.387-9.712l-0.622,16.755
				l630.317,18.93c42.301,1.271,77.848-31.456,79.396-73.097l0,0C1257.255,1168.11,1224.219,1133.325,1181.919,1132.055z"/>
		</g>
		<g>
			<path style="fill:#E28569;" d="M959.932,1200.869L959.932,1200.869c1.547-41.641-31.488-76.427-73.788-77.697l-335.207,7.824
				l-0.844,22.684l324.229-12.972c32.587,0.979,58.037,27.777,56.845,59.856l0,0c-1.193,32.079-28.578,57.29-61.164,56.312
				l-323.387-9.712l-0.622,16.755l334.542,10.048C922.836,1275.236,958.382,1242.511,959.932,1200.869z"/>
		</g>
		<g>
			<path style="fill:#E6EDFF;" d="M874.32,1140.771l-324.227,12.909l0,0c29.254,4.208,38.089,30.915,42.146,45.164
				c8.23,28.896-16.109,45.543-45.611,47.985l-0.015,0.397l323.386,9.712c32.587,0.979,59.971-24.232,61.163-56.313l0,0
				C932.356,1168.547,906.906,1141.749,874.32,1140.771z"/>
		</g>
		<g>
			
				<rect x="723.158" y="1086.247" transform="matrix(0.03 -0.9995 0.9995 0.03 -514.0059 1903.9587)" style="fill:#2F1A31;" width="1.674" height="261.139"/>
		</g>
		<g>
			
				<rect x="592.228" y="1196.509" transform="matrix(0.9999 -0.0152 0.0152 0.9999 -18.1104 10.6587)" style="fill:#2F1A31;" width="200.534" height="1.673"/>
		</g>
	</g>
	<g>
		<g>
			<path style="fill:#6F4975;" d="M546.857,1265.432h265.94l300.798,17.882v22.697l-290.767-22.697
				c-29.299,0-53.052,26.02-53.052,58.116l0,0c0,32.098,23.753,58.117,53.052,58.117h290.767v16.765H546.857
				c-38.034,0-68.866-33.776-68.866-75.44l0,0C477.991,1299.208,508.823,1265.432,546.857,1265.432z"/>
		</g>
		<g>
			<path style="fill:#6F4975;" d="M743.932,1340.871L743.932,1340.871c0-41.663,30.832-75.439,68.866-75.439l308.548,15.767
				l-7.75,24.813l-290.767-22.697c-29.299,0-53.052,26.02-53.052,58.116l0,0c0,32.098,23.753,58.117,53.052,58.117h290.767v16.765
				H812.798C774.764,1416.312,743.932,1382.535,743.932,1340.871z"/>
		</g>
		<g>
			<path style="fill:#E6EDFF;" d="M822.829,1283.376l290.767,22.635l0,0c-26.414,3.326-35.24,29.754-39.361,43.873
				c-8.356,28.633,12.947,46.001,39.361,49.327v0.397H822.829c-29.299,0-53.052-26.019-53.052-58.115l0,0
				C769.777,1309.396,793.53,1283.376,822.829,1283.376z"/>
		</g>
		<g>
			<rect x="837.955" y="1363.098" style="fill:#2F1A31;" width="234.691" height="1.587"/>
		</g>
		<g>
			<g>
				<path style="fill:#5F3B66;" d="M613.859,1387.377c-0.757-0.538-18.54-13.576-20.286-48.924
					c-1.766-35.754,23.452-48.479,24.526-49.003l2.058,4.216l-1.028-2.108l1.033,2.106c-0.961,0.475-23.512,11.994-21.903,44.557
					c1.635,33.1,18.153,45.215,18.319,45.333L613.859,1387.377z"/>
			</g>
		</g>
		<g>
			
				<rect x="983.449" y="1255.272" transform="matrix(0.05 -0.9987 0.9987 0.05 -408.6707 2261.1106)" style="fill:#2F1A31;" width="1.585" height="180.212"/>
		</g>
		<g>
			<g>
				<path style="fill:#5F3B66;" d="M541.924,1294.659h14.306c12.526,0,21.593,11.817,18.503,23.955
					c-1.811,7.113-2.612,15.177-0.873,23.276c1.271,5.925,2.814,11.464,4.415,16.439c3.957,12.301-5.321,24.872-18.242,24.872
					h-17.84c-7.153,0-13.725-3.979-16.992-10.343c-7.097-13.823-15.647-39.888-0.098-68.189
					C528.481,1298.521,534.908,1294.659,541.924,1294.659z"/>
			</g>
		</g>
	</g>
	<g>
		<g>
			<path style="fill:#6F4975;" d="M2114.625,902.046l-855.66-8.769c-18.318-0.189-33.058-13.505-33.058-29.868V396.919
				c0-16.318,14.662-29.616,32.929-29.866l844.623-11.553c18.401-0.252,33.572,12.826,33.945,29.261l11.037,486.811
				C2148.823,888.438,2133.508,902.239,2114.625,902.046z"/>
		</g>
		<g>
			<path style="fill:#E7F2F0;" d="M2114.946,408.143v438.746c0,9.34-7.573,16.911-16.911,16.911H1275.98
				c-9.34,0-16.912-7.571-16.912-16.911V408.143c0-9.339,7.572-16.911,16.912-16.911h822.055
				C2107.373,391.232,2114.946,398.804,2114.946,408.143z"/>
		</g>
		<g>
			<g>
				<path style="fill:#2F1A31;" d="M2114.946,809.796v13.878c0,8.56-6.94,15.499-15.499,15.499h-492.286
					c-1.091-0.271-2.16-0.61-3.21-0.99c35.036-34.036,102.469-87.441,194.638-105.469c6.771-1.339,13.669-2.489,20.708-3.409
					c6.211-0.811,12.52-1.461,18.938-1.92c0.34-0.03,0.69-0.061,1.03-0.08c19.598-1.36,39.186-0.65,58.493,1.38
					c3.91,0.41,7.81,0.87,11.688,1.38c5.75,0.76,11.359,1.569,16.849,2.449C2018.496,747.203,2077.46,778.229,2114.946,809.796z"/>
			</g>
			<g>
				<path style="fill:#F7B686;" d="M1901.605,751.776c10.44-16.057-4.561-17.447-9.306-33.677l-14.684-50.219l-4.272-14.62
					l-25.128-85.963l-4.851,85.03l-2.904,51.039l-0.919,16.155c-0.625,10.967-3.638,12.474-11.932,21.881
					c-3.36,3.811-15.905,19.225,0.139,26.969C1842.139,775.32,1888.295,772.246,1901.605,751.776z"/>
			</g>
			<g>
				<path style="fill:#2F1A31;" d="M1896.767,648.55c0,0,83.717-29.22,71.23-91.506c-12.485-62.285-76.329,56.358-76.329,56.358
					l-3.373,32.577L1896.767,648.55z"/>
			</g>
			<g>
				<path style="fill:#2F1A31;" d="M1877.889,666.499c-0.076,0.462-0.167,0.923-0.272,1.382
					c-5.618,26.878-36.994,35.659-36.994,35.659l-0.161-0.173l2.904-51.039c9.512-2.059,22.887-3.704,29.979,0.933
					C1877.052,655.685,1879.04,659.818,1877.889,666.499z"/>
			</g>
			<g>
				<path style="fill:#F7B686;" d="M1767.697,580.19c6.499-49.499,45.044-85.256,86.094-79.866
					c41.05,5.39,69.06,49.885,62.561,99.382c-6.498,49.499-45.044,85.256-86.094,79.866
					C1789.209,674.182,1761.199,629.688,1767.697,580.19z"/>
			</g>
			<g>
				<path style="fill:#2F1A31;" d="M1906.835,587.821c0,0-24.707,4.991-35.194-13.418c-10.488-18.408-16.667-34.164-59.529-32.555
					c-42.86,1.609-77.604-23.542-75.793-46.371c1.812-22.828,25.272-30.323,46.801-19.409c21.528,10.915,0.309-13.057,24.926-26.775
					c24.617-13.718,53.76,25.076,77.604,23.543c23.843-1.533,96.314,20.553,82.348,84.208L1906.835,587.821z"/>
			</g>
			<g>
				<path style="fill:#F7B686;" d="M1916.191,606.069c-7.601,4.836-17.265,3.251-21.585-3.541
					c-4.321-6.792-1.663-16.217,5.937-21.053c7.6-4.835,17.265-3.249,21.585,3.542
					C1926.449,591.81,1923.791,601.234,1916.191,606.069z"/>
			</g>
			<g>
				<path style="fill:#FFFFFF;" d="M1792.086,507.772c-7.625,0-13.344-1.484-17.069-4.44c-6.494-5.156-6.928-9.753-5.167-12.334
					c2.085-3.06,7.821-4.148,13.815-0.671c10.264,5.954,17.79,4.991,17.866,4.982l0.144,1.012c-0.321,0.045-7.928,1.036-18.523-5.11
					c-5.478-3.177-10.635-2.31-12.458,0.363c-1.5,2.202-0.986,6.236,4.96,10.957c12.305,9.768,45.4-0.575,45.733-0.681l0.31,0.974
					c-0.085,0.026-8.542,2.689-18.439,4.085C1799.17,507.484,1795.443,507.772,1792.086,507.772z"/>
			</g>
			<g>
				<path style="fill:#FFFFFF;" d="M1928.156,492.57c-8.769-6.199-19.508-5.582-31.947-4.868c-6.3,0.363-12.816,0.737-19.918,0.347
					c-21.361-1.171-39.1-21.42-39.721-23.474l0.979-0.298c0.435,1.266,17.357,21.575,38.798,22.751
					c7.049,0.388,13.533,0.013,19.804-0.347c12.628-0.727,23.536-1.354,32.597,5.053L1928.156,492.57z"/>
			</g>
			<g>
				<path style="fill:#FFFFFF;" d="M1952.911,545.425c-0.042,0-0.083-0.001-0.124-0.004c-3.21-0.206-8.293-9.731-8.458-14.572
					c-0.084-2.477,1.145-3.013,1.884-3.11c5.996-0.807,8.864,13.801,8.982,14.422l0.018,0.09l-0.014,0.09
					C1954.785,544.861,1953.752,545.425,1952.911,545.425z M1946.677,528.731c-0.108,0-0.218,0.007-0.329,0.021
					c-0.262,0.034-1.062,0.141-0.996,2.063c0.154,4.541,5.061,13.429,7.501,13.586c0.729,0.047,1.146-1.113,1.321-2.138
					C1953.406,538.338,1950.653,528.731,1946.677,528.731z"/>
			</g>
			<g>
				<g>
					<path style="fill:#060633;" d="M1827.939,586.16c-0.39-0.246-0.663-0.666-0.703-1.16c-0.069-0.836,0.549-1.569,1.384-1.639
						c0.493-0.042,11.813-2.066,17.517,9.969c0.359,0.759,0.068,1.665-0.684,2.039c-0.751,0.374-1.508-0.029-2.038-0.683
						c-5.293-6.533-14.133-8.327-14.541-8.296C1828.532,586.418,1828.209,586.33,1827.939,586.16z"/>
				</g>
			</g>
			<g>
				<path style="fill:#060633;" d="M1834.527,605.654c-0.954,3.498-3.785,5.773-6.324,5.08c-2.539-0.691-3.822-4.09-2.868-7.588
					c0.955-3.499,3.786-5.773,6.325-5.081C1834.198,598.758,1835.482,602.156,1834.527,605.654z"/>
			</g>
			<g>
				<g>
					<path style="fill:#060633;" d="M1771.721,581.648c-0.352-0.061-0.662-0.327-0.821-0.758c-0.27-0.726-0.007-1.645,0.59-2.055
						c0.352-0.24,8.151-6.756,15.494,1.761c0.463,0.536,0.485,1.475,0.03,2.124s-1.118,0.599-1.678,0.227
						c-5.604-3.713-12.575-1.676-12.868-1.477C1772.224,581.636,1771.963,581.691,1771.721,581.648z"/>
				</g>
			</g>
			<g>
				<path style="fill:#060633;" d="M1785.578,597.223c0.45,3.599-1.302,6.779-3.913,7.105c-2.61,0.327-5.092-2.324-5.542-5.922
					c-0.45-3.6,1.301-6.78,3.912-7.107C1782.646,590.973,1785.127,593.625,1785.578,597.223z"/>
			</g>
			<g>
				<g>
					<path style="fill:#020202;" d="M1825.682,653.547c-13.494,0-24.032-8.24-24.185-8.361c-0.457-0.365-0.531-1.032-0.167-1.489
						c0.365-0.458,1.032-0.533,1.491-0.169c0.844,0.674,20.914,16.317,40.782,1.928c0.474-0.345,1.137-0.236,1.48,0.237
						c0.345,0.475,0.238,1.138-0.237,1.481C1838.312,651.906,1831.702,653.547,1825.682,653.547z"/>
				</g>
				<g>
					<path style="fill:#020202;" d="M1845.734,651.55c-0.036,0-0.073-0.002-0.11-0.006c-0.583-0.06-1.006-0.581-0.946-1.164
						c0.158-1.532-0.236-4.16-3.013-7.985c-0.104-0.142-0.174-0.242-0.205-0.292c-0.311-0.497-0.159-1.151,0.338-1.462
						c0.492-0.308,1.146-0.161,1.457,0.332c0.024,0.035,0.067,0.095,0.126,0.176c2.547,3.508,3.692,6.687,3.407,9.449
						C1846.732,651.144,1846.271,651.55,1845.734,651.55z"/>
				</g>
			</g>
			<g>
				<path style="fill:#FFFFFF;" d="M1765.043,642.199c-3.82,0-7.578-1.112-11.114-3.32c-9.627-6.013-16.392-19.426-18.097-35.881
					c-2.772-26.777,8.695-53.586,25.563-59.763c6.248-2.288,12.596-1.598,18.353,1.999c9.627,6.013,16.392,19.426,18.097,35.881l0,0
					c2.772,26.776-8.694,53.586-25.561,59.762C1769.871,641.761,1767.445,642.199,1765.043,642.199z M1768.611,545.077
					c-2.035,0-4.091,0.372-6.132,1.12c-15.597,5.71-26.143,31.045-23.51,56.477c1.604,15.494,7.822,28.029,16.63,33.53
					c4.901,3.062,10.297,3.654,15.598,1.712c15.597-5.711,26.143-31.046,23.509-56.476l0,0c-1.604-15.495-7.821-28.03-16.629-33.532
					C1775.063,546.026,1771.861,545.077,1768.611,545.077z"/>
			</g>
			<g style="opacity:0.3;">
				<path style="fill:#FFFFFF;" d="M1881.488,581.477c0.472,25.593-13.891,49.973-32.08,54.454
					c-18.188,4.479-33.316-12.635-33.788-38.229c-0.473-25.594,13.89-49.973,32.079-54.453
					C1865.889,538.769,1881.016,555.884,1881.488,581.477z"/>
			</g>
			<g style="opacity:0.3;">
				<path style="fill:#FFFFFF;" d="M1798.077,583.269c0.464,25.709-12.514,50.775-28.984,55.99
					c-16.472,5.214-30.198-11.399-30.661-37.108c-0.464-25.709,12.514-50.775,28.984-55.99
					C1783.887,540.947,1797.614,557.562,1798.077,583.269z"/>
			</g>
			<g>
				<path style="fill:#FFFFFF;" d="M1842.276,637.057c-5.741,0-11.193-1.9-16.028-5.632c-9.577-7.391-15.278-20.763-15.643-36.687
					c-0.628-27.378,15.139-53.521,35.144-58.275c8.078-1.921,15.839-0.237,22.446,4.862c9.577,7.39,15.278,20.761,15.643,36.685
					c0.628,27.379-15.139,53.521-35.144,58.276C1846.527,636.802,1844.382,637.057,1842.276,637.057z M1852.133,538.852
					c-1.856,0-3.745,0.225-5.654,0.679c-18.637,4.43-33.314,29.163-32.72,55.136c0.338,14.747,5.727,27.555,14.415,34.261
					c5.83,4.499,12.675,5.982,19.791,4.291c18.637-4.43,33.314-29.164,32.72-55.137c-0.338-14.747-5.727-27.555-14.415-34.261
					C1862.004,540.529,1857.194,538.852,1852.133,538.852z"/>
			</g>
			<g>
				<path style="fill:#FFFFFF;" d="M1817.438,592.351c-0.383,0-0.771-0.075-1.146-0.233c-12.487-5.285-21.329-0.723-21.417-0.676
					c-1.438,0.762-3.22,0.217-3.981-1.219c-0.764-1.437-0.218-3.22,1.218-3.983c0.46-0.243,11.435-5.911,26.476,0.453
					c1.497,0.633,2.198,2.361,1.563,3.858C1819.677,591.675,1818.586,592.351,1817.438,592.351z"/>
			</g>
			<g>
				<path style="fill:#2F1A31;" d="M1968.371,557.786l-0.746-1.482c12.091-6.085,9-19.408,8.967-19.541l1.612-0.394
					C1978.24,536.516,1981.628,551.114,1968.371,557.786z"/>
			</g>
			<g>
				<path style="fill:#2F1A31;" d="M1977.115,575.526c-0.064-0.101-6.545-10.026-13.589-11.592l0.359-1.62
					c7.712,1.714,14.345,11.881,14.624,12.311L1977.115,575.526z"/>
			</g>
		</g>
		<g style="opacity:0.5;">
			<path style="fill:#96A7E2;" d="M1628.105,642.762h-230.162c-6.604,0-12.008-5.403-12.008-12.008V497.865
				c0-6.605,5.403-12.008,12.008-12.008h230.162c6.604,0,12.009,5.402,12.009,12.008v132.889
				C1640.114,637.358,1634.71,642.762,1628.105,642.762z"/>
		</g>
		<g>
			<path style="fill:#96A7E2;" d="M1577.069,599.568h-230.161c-6.604,0-12.009-5.404-12.009-12.008V454.672
				c0-6.605,5.404-12.009,12.009-12.009h230.161c6.604,0,12.008,5.403,12.008,12.009V587.56
				C1589.077,594.164,1583.674,599.568,1577.069,599.568z"/>
		</g>
		<g>
			<g>
				<g>
					<g>
						<path style="fill:#EAA97D;" d="M1574.852,786.918c-0.011,0.043-0.011,0.086-0.021,0.131
							c-0.568,3.972-1.113,8.575-1.604,13.735c-0.011,0.011-0.011,0.011-0.011,0.011c-0.993,10.398-1.768,23.021-1.997,37.086
							h-128.231c0.742-38.624,4.55-65.027,4.801-66.696v-0.011l10.529,1.32l50.996,6.372l1.996,0.25l2.487,0.306l57.215,7.026
							l3.83,0.47H1574.852z"/>
					</g>
				</g>
				<g>
					<path style="fill:#EAA97D;" d="M1447.518,771.154c0,0,1.746-81.791,14.357-95.625c12.61-13.834,108.181-3.125,115.309,16.597
						c7.13,19.721-2.344,94.796-2.344,94.796L1447.518,771.154z"/>
				</g>
				<g>
					<path style="fill:#E08B65;" d="M1503.643,811.183c-0.645,0-1.182-0.505-1.213-1.156c-0.019-0.353-0.404-8.732,1.211-17.855
						c2.225-12.559,7.003-20.014,14.203-22.159c26.65-7.94,41.444-23.634,41.591-23.791c0.457-0.493,1.227-0.521,1.718-0.063
						c0.493,0.457,0.521,1.227,0.064,1.719c-0.615,0.663-15.396,16.34-42.678,24.467c-15.122,4.507-13.696,37.233-13.681,37.563
						c0.033,0.671-0.484,1.241-1.155,1.275C1503.684,811.183,1503.663,811.183,1503.643,811.183z"/>
				</g>
			</g>
			<g>
				<path style="fill:#EAA97D;" d="M1579.718,710.666c0,0,3.923-126.652-9.155-128.824c-19.131-3.178-26.731,49.304-30.005,87.435
					C1537.285,707.408,1579.718,710.666,1579.718,710.666z"/>
			</g>
			<g>
				<g>
					<path style="fill:#F7B686;" d="M1533.466,639.49c6.911,1.182,13.849-0.938,17.094,37.733
						c1.622,19.341,2.959,80.223-15.292,77.156c-18.252-3.069-24.485-72.071-24.485-72.071s0.374,79.116-15.555,70.858
						c-15.931-8.258-22.005-70.856-22.005-70.856s4.768,77.063-13.474,67.047c-18.241-10.017-23.817-51.06-22.285-68.674
						c1.915-22.015,18.021-23.3,35.155-24.419c0,0,16.945-10.503,28.17-8.561C1505.094,648.449,1519.919,637.174,1533.466,639.49z"
						/>
				</g>
			</g>
			<g>
				<path style="fill:#EAA97D;" d="M1573.22,800.791c0,0,18.072-14.85,30.073-43.751c12.002-28.902,38.732-57.269,31.095-68.725
					c-7.638-11.456-45.823,14.105-58.37,39.785C1563.47,753.778,1573.22,800.791,1573.22,800.791z"/>
			</g>
		</g>
		<g>
			<path style="fill:#96A7E2;" d="M2114.946,821.75v25.139c0,9.34-7.573,16.911-16.911,16.911H1275.98
				c-9.34,0-16.912-7.571-16.912-16.911v-16.77C1358.692,828.612,1920.574,823.508,2114.946,821.75z"/>
		</g>
		<g>
			<g>
				
					<rect x="1312.85" y="841.57" transform="matrix(1 -0.0055 0.0055 1 -4.6336 9.293)" style="fill:#E7F2F0;" width="739.816" height="6.546"/>
			</g>
		</g>
		<g>
			<g>
				<polygon style="fill:#E28569;" points="1684.449,841.565 1683.555,848.11 1312.869,850.184 1312.836,843.638 				"/>
			</g>
		</g>
		<g>
			<path style="fill:#E28569;" d="M1671.735,844.843c0-6.088,4.935-11.022,11.022-11.022s11.023,4.935,11.023,11.022
				c0,6.087-4.936,11.023-11.023,11.023S1671.735,850.93,1671.735,844.843z"/>
		</g>
		<g>
			<g>
				<path style="fill:#CED891;" d="M2002.701,421.19c0-4.504,3.65-8.156,8.154-8.156s8.155,3.651,8.155,8.156
					c0,4.504-3.651,8.155-8.155,8.155S2002.701,425.694,2002.701,421.19z"/>
			</g>
			<g>
				<path style="fill:#6F4975;" d="M2032.185,421.19c0-4.504,3.651-8.156,8.155-8.156s8.155,3.651,8.155,8.156
					c0,4.504-3.651,8.155-8.155,8.155S2032.185,425.694,2032.185,421.19z"/>
			</g>
			<g>
				<path style="fill:#E28569;" d="M2062.401,421.19c0-4.504,3.65-8.156,8.153-8.156c4.506,0,8.156,3.651,8.156,8.156
					c0,4.504-3.65,8.155-8.156,8.155C2066.052,429.346,2062.401,425.694,2062.401,421.19z"/>
			</g>
		</g>
		<g>
			<g>
				<path style="fill:#E28569;" d="M1473.063,547.176l8.405-19.782c1.161-2.733,4.563-3.677,6.967-1.934l11.229,8.142
					c2.561,1.858,6.188,0.65,7.126-2.371l6.467-20.825c0.776-2.499,3.469-3.855,5.938-2.992l6.19,2.163
					c1.911,0.668,4.034,0.015,5.239-1.611l0.983-1.33c2.651-3.58,8.335-1.705,8.335,2.75v39.598c0,2.551-2.069,4.62-4.62,4.62
					h-58.007C1474.004,553.604,1471.768,550.223,1473.063,547.176z"/>
			</g>
			<g>
				<path style="fill:#DEEBE9;" d="M1543.601,566.655c-0.048,0-0.098,0-0.146,0l-172.94-2.837c-4.537-0.074-8.196-3.544-8.513-8.071
					l-3.51-50.232c-0.168-2.395,0.634-4.69,2.254-6.462c1.621-1.772,3.837-2.772,6.237-2.818l176.448-3.339
					c2.331-0.051,4.565,0.837,6.242,2.483c1.676,1.644,2.599,3.844,2.599,6.191v56.409c0,2.345-0.92,4.541-2.591,6.185
					C1548.045,565.774,1545.891,566.655,1543.601,566.655z M1543.6,494.577c-0.045,0-0.09,0-0.135,0.001l-176.449,3.34
					c-1.936,0.035-3.721,0.843-5.027,2.271c-1.307,1.428-1.952,3.278-1.817,5.209l3.509,50.232c0.256,3.649,3.205,6.445,6.863,6.505
					l172.938,2.837c1.903,0.047,3.672-0.681,5.02-2.006s2.09-3.098,2.09-4.986V501.57c0-1.893-0.745-3.665-2.096-4.991
					C1547.176,495.285,1545.441,494.577,1543.6,494.577z"/>
			</g>
			<g>
				<path style="fill:#DEEBE9;" d="M1444.313,534.727h-62.499c-1.376,0-3.492-1.434-3.675-2.798
					c-0.375-2.796,2.295-3.596,3.671-3.596l62.503,1.392c1.376,0,2.501,1.125,2.501,2.501l0,0
					C1446.814,533.601,1445.689,534.727,1444.313,534.727z"/>
			</g>
			<g>
				<path style="fill:#DEEBE9;" d="M1428.079,522.983h-47.175c-1.038,0-2.637-1.151-2.773-2.247c-0.283-2.247,1.732-2.89,2.771-2.89
					l47.178,1.118c1.038,0,1.888,0.903,1.888,2.009l0,0C1429.967,522.079,1429.117,522.983,1428.079,522.983z"/>
			</g>
			<g>
				<path style="fill:#DEEBE9;" d="M1428.079,546.558h-47.175c-1.038,0-2.637-1.152-2.773-2.248
					c-0.283-2.246,1.732-2.889,2.771-2.889l47.178,1.117c1.038,0,1.888,0.904,1.888,2.01l0,0
					C1429.967,545.652,1429.117,546.558,1428.079,546.558z"/>
			</g>
			<g>
				<path style="fill:#DEEBE9;" d="M1427.477,466.885h-62.498c-1.377,0-3.493-1.433-3.676-2.797
					c-0.375-2.797,2.295-3.596,3.671-3.596l62.503,1.391c1.376,0,2.502,1.125,2.502,2.501l0,0
					C1429.979,465.759,1428.853,466.885,1427.477,466.885z"/>
			</g>
			<g>
				<path style="fill:#DEEBE9;" d="M1411.242,478.715h-47.174c-1.039,0-2.637-1.151-2.773-2.246c-0.283-2.248,1.731-2.89,2.771-2.89
					l47.177,1.117c1.039,0,1.889,0.904,1.889,2.009l0,0C1413.131,477.81,1412.281,478.715,1411.242,478.715z"/>
			</g>
		</g>
	</g>
	<g>
		<g>
			<path style="fill:#F7B686;" d="M1543.158,1206.68c4.445,7.923,49.092,77.082,39.748,144.723l-48.594-17.569l-22.206-91.179
				L1543.158,1206.68z"/>
		</g>
		<g>
			<path style="fill:#E28569;" d="M1349.113,1178.336c0,0,29.858-53.549,102.533-38.744
				c72.677,14.805,112.338,118.827,92.627,324.861c0,0-115.458-45.902-265.586-8.898
				C1278.688,1455.555,1303.398,1256.019,1349.113,1178.336z"/>
		</g>
		<g>
			<path style="fill:#E28569;" d="M1293.681,1156.698l51.086,50.996c0,0,130.964,35.384,167.34,34.96
				c36.374-0.424,50.692-27.009,50.692-27.009s-30.7-48.618-92.82-70.609c-5.835-2.074-11.939-3.901-18.328-5.44
				c-10.727-2.572-21.63-4.057-32.451-4.704C1354.893,1131.065,1293.681,1156.698,1293.681,1156.698z"/>
		</g>
		<g>
			<path style="fill:#2F1A31;" d="M1293.683,1156.699c-8.166,8.875,4.428,18.571,18.534,32.654
				c14.105,14.082,28.678,22.295,32.547,18.343c3.87-3.953-4.428-18.573-18.533-32.656
				C1312.125,1160.958,1297.428,1152.626,1293.683,1156.699z"/>
		</g>
		<g>
			<path style="fill:#F7B686;" d="M1337.971,1207.903c0,0,0.763-10.185-12.04-23.189c-7.71-7.833-17.472-12.951-24.017-15.784
				c-3.892-1.685-8.387,0.209-9.931,4.189l-4.095,10.56l19.07,12.278L1337.971,1207.903z"/>
		</g>
		<g>
			<path style="fill:#6F4975;" d="M1428.24,1396.798c0,0-157.598-85.404-214.086,7.76
				c-41.815,68.966,21.041,133.192,254.191,126.669c0,0,23.042-10.794,17.43-66.773
				C1483.552,1442.272,1428.24,1396.798,1428.24,1396.798z"/>
		</g>
		<g>
			<path style="fill:#6F4975;" d="M1428.24,1396.798c0,0,209.897-85.98,251.429-32.23c47.73,61.773,1.958,166.659-219.292,129.166
				l-26.963-29.28L1428.24,1396.798z"/>
		</g>
		<g>
			<path style="fill:#020202;" d="M1468.603,1531.586l-0.515-0.719c24.478-17.465,17.898-62.317,17.294-66.087l-159.091-57.901
				l0.303-0.83l159.573,58.076l0.044,0.251C1486.297,1464.862,1494.487,1513.116,1468.603,1531.586z"/>
		</g>
		<g>
			<path style="fill:#2F1A31;" d="M1487.116,1479.854c0,0,38.683,1.573,56.854,10.484c18.171,8.912,8.468,30.665-28.427,30.084
				s-34.094-6.071-34.094-6.071S1488.457,1495.254,1487.116,1479.854z"/>
		</g>
		<g>
			<g>
				<path style="fill:#F7B686;" d="M1437.601,1400.894c12.81,0.001,23.334-3.239,31.868-9.677
					c16.116-12.155,19.105-31.534,16.769-44.435l-15.418-8.966c-0.767-4.229-30.52,11.49-30.47,11.475
					c-0.136,0.045-14.199,4.113-62.964-20.807c-33.946-17.348-51.055-41.968-52.304-75.268
					c-0.943-25.104,10.248-39.203,12.889-45.313c0.353-0.813-16.405-17.613-15.925-19.322l-12.562-6.384
					c0.404-1.44-12.078-6.364-11.901-6.776l-9.694,8.258c-4.784,11.067-14.963,36.475-13.649,71.483
					c1.365,36.367,16.383,86.56,80.172,119.159C1389.196,1392.099,1416.498,1400.893,1437.601,1400.894z"/>
			</g>
		</g>
		<g>
			<g>
				<path style="fill:#2F1A31;" d="M1447.947,1402.937h136.01c2.848,0,5.375-1.811,6.273-4.494l28.266-84.41
					c1.423-4.251-1.764-8.638-6.275-8.638h-130.796c-5.96,0-11.251,3.791-13.133,9.408l-26.619,79.496
					C1440.25,1398.549,1443.437,1402.937,1447.947,1402.937z"/>
			</g>
			<g>
				<path style="fill:#2F1A31;" d="M1456.484,1402.937h136.009c2.848,0,5.376-1.811,6.274-4.494l28.264-84.41
					c1.424-4.251-1.763-8.638-6.273-8.638h-130.796c-5.961,0-11.252,3.791-13.133,9.408l-26.619,79.496
					C1448.786,1398.549,1451.973,1402.937,1456.484,1402.937z"/>
			</g>
			<g>
				<path style="fill:#DEEBE9;" d="M1551.783,1351.402c0-3.204-3.697-4.511-6.925-4.511c-3.227,0-8.496,3.518-8.462,8.008
					c0.036,4.846,3.822,5.476,7.05,5.476C1546.673,1360.375,1551.783,1355.482,1551.783,1351.402z"/>
			</g>
			<g>
				<path style="fill:#2F1A31;" d="M1406.443,1391.008h186.118v11.929h-189.988c-2.209,0-4-1.791-4-4v-0.059
					C1398.573,1394.531,1402.096,1391.008,1406.443,1391.008z"/>
			</g>
			<g>
				<path style="fill:#436E8E;" d="M1466.154,1348.068l-0.854-0.227c0.274-1.033,6.768-25.382,11.142-33.254
					c4.438-7.985,9.868-9.557,10.097-9.619l0.234,0.852c-0.052,0.015-5.315,1.561-9.558,9.196
					C1472.894,1322.793,1466.223,1347.817,1466.154,1348.068z"/>
			</g>
			<g>
				<path style="fill:#436E8E;" d="M1446.053,1391.449v-0.884c4.457,0,5.563-1.845,5.573-1.864l10.567-31.582l0.838,0.279
					l-10.6,31.657C1452.352,1389.219,1451.096,1391.449,1446.053,1391.449z"/>
			</g>
		</g>
		<g>
			<path style="fill:#E08B65;" d="M1315.327,1327.715c-0.485,0-0.992-0.069-1.513-0.21c-2.929-0.784-6.146-3.716-8.396-7.651l0,0
				c-3.446-6.028-3.54-12.269-0.212-14.208c1.038-0.604,2.319-0.73,3.705-0.358c2.928,0.784,6.146,3.717,8.395,7.652
				c3.447,6.026,3.539,12.268,0.213,14.207C1316.87,1327.525,1316.129,1327.715,1315.327,1327.715z M1306.951,1318.977
				c1.995,3.487,4.868,6.165,7.32,6.822c0.933,0.25,1.726,0.189,2.357-0.179c2.396-1.396,2.004-6.803-0.855-11.804
				c-1.994-3.487-4.867-6.166-7.318-6.822c-0.934-0.25-1.728-0.19-2.357,0.178
				C1303.701,1308.568,1304.093,1313.975,1306.951,1318.977L1306.951,1318.977z"/>
		</g>
		<g>
			<path style="fill:#F7B686;" d="M1418.074,1134.766c8.936-0.263,15.714-1.182,20.854-7.229l15.907-18.712l4.63-5.447l27.228-32.03
				l-14.299,37.454l-8.586,22.481l-2.718,7.116c-1.845,4.83,0.593,7.081,2.31,12.731c0.696,2.289,5.389,16.378-6.836,16.466
				c-15.229,0.11-34.493-17.591-38.724-32.876C1417.918,1134.734,1417.995,1134.768,1418.074,1134.766z"/>
		</g>
		<g>
			<path style="fill:#2F1A31;" d="M1450.411,1096.804c0,0-29.979-28.813-12.684-53.133c17.295-24.319,21.615,39.031,21.615,39.031
				l-4.833,14.644L1450.411,1096.804z"/>
		</g>
		<g>
			<path style="fill:#2F1A31;" d="M1454.986,1108.18c-0.057,0.213-0.107,0.429-0.15,0.646c-2.783,12.634,8.871,22.501,8.871,22.501
				l0.102-0.043l8.586-22.481c-3.648-2.731-9.021-6.037-12.929-5.424C1457.423,1103.698,1455.781,1105.087,1454.986,1108.18z"/>
		</g>
		<g>
			<path style="fill:#F7B686;" d="M1518.455,1092.527c6.76-22.518-2.752-45.361-21.246-51.023
				c-18.494-5.661-38.967,8.003-45.728,30.521c-6.762,22.518,2.751,45.361,21.244,51.022
				C1491.221,1128.709,1511.693,1115.045,1518.455,1092.527z"/>
		</g>
		<g>
			<path style="fill:#2F1A31;" d="M1457.815,1068.771c0,0,9.547,6.944,17.548,1.076c8.004-5.866,13.663-11.432,31.58-2.413
				c17.919,9.019,37.533,4.969,41.156-5.186c3.622-10.155-4.913-17.932-16.168-17.428c-11.256,0.504,2.381-5.667-5.448-16.34
				c-7.829-10.675-27.688,0.322-37.532-4.97c-9.846-5.291-44.915-9.888-51.224,20.16L1457.815,1068.771z"/>
		</g>
		<g>
			<path style="fill:#F7B686;" d="M1450.325,1074.789c2.301,3.553,6.716,4.749,9.86,2.673c3.145-2.077,3.828-6.642,1.526-10.193
				c-2.302-3.554-6.717-4.75-9.861-2.673C1448.706,1066.672,1448.023,1071.236,1450.325,1074.789z"/>
		</g>
		<g>
			<path style="fill:#FFFFFF;" d="M1528.308,1058.73c-7.528,0-17.743-9.186-18.212-9.609l0.881-0.973
				c0.122,0.109,12.037,10.838,18.935,9.082c2.649-0.672,4.147-1.926,3.908-3.273c-0.226-1.283-2.121-2.501-4.773-2.229
				c-5.831,0.592-8.997-1.384-9.129-1.468l0.708-1.104c0.027,0.018,2.947,1.813,8.288,1.268c3.584-0.368,5.866,1.43,6.198,3.305
				c0.29,1.637-0.84,3.75-4.878,4.774C1529.619,1058.658,1528.974,1058.73,1528.308,1058.73z"/>
		</g>
		<g>
			<path style="fill:#FFFFFF;" d="M1497.355,1033.575c-2.484,0-5.056-0.367-7.505-1.327c-3.119-1.222-5.827-2.654-8.446-4.038
				c-5.082-2.687-9.477-5.007-14.247-4.077l-0.251-1.287c5.234-1.017,9.809,1.402,15.111,4.204c2.587,1.368,5.262,2.782,8.311,3.977
				c9.113,3.569,19.774-1.588,20.44-2.148l0.96,0.893C1511.158,1030.428,1504.628,1033.575,1497.355,1033.575z"/>
		</g>
		<g>
			<path style="fill:#FFFFFF;" d="M1446.818,1042.114c-0.191,0-0.37-0.029-0.531-0.09c-0.44-0.167-1.117-0.685-0.69-2.287
				l0.097-0.206c0.733-1.052,4.53-6.215,7.16-4.563c0.335,0.211,1.04,0.854,0.344,2.256
				C1452.331,1038.968,1448.835,1042.114,1446.818,1042.114z M1446.837,1040.185c-0.119,0.499-0.045,0.648-0.045,0.648
				c0.354,0.115,2.244-0.784,4.045-2.641c1.273-1.312,1.38-2,1.338-2.1C1451.012,1035.36,1448.337,1038.071,1446.837,1040.185z"/>
		</g>
		<g>
			<g>
				<path style="fill:#060633;" d="M1491.687,1083.387c0.213-0.031,0.411-0.158,0.522-0.362c0.19-0.345,0.068-0.78-0.273-0.974
					c-0.201-0.113-4.626-3.182-9.367,0.878c-0.299,0.257-0.35,0.702-0.102,1.009c0.247,0.307,0.646,0.281,0.998,0.103
					c3.509-1.776,7.612-0.83,7.779-0.736C1491.385,1083.382,1491.539,1083.407,1491.687,1083.387z"/>
			</g>
		</g>
		<g>
			<path style="fill:#060633;" d="M1485.134,1090.477c-0.268,1.688,0.499,3.215,1.712,3.41c1.213,0.196,2.412-1.013,2.68-2.7
				c0.268-1.688-0.499-3.215-1.712-3.41C1486.602,1087.58,1485.401,1088.789,1485.134,1090.477z"/>
		</g>
		<g>
			<g>
				<path style="fill:#060633;" d="M1516.463,1092.371c0.162,0.043,0.345-0.012,0.495-0.165c0.254-0.26,0.318-0.705,0.145-0.997
					c-0.104-0.172-2.166-4.485-6.928-2.254c-0.3,0.14-0.491,0.539-0.422,0.906c0.068,0.366,0.36,0.475,0.67,0.423
					c3.098-0.506,5.671,1.724,5.757,1.865C1516.251,1092.269,1516.352,1092.343,1516.463,1092.371z"/>
			</g>
		</g>
		<g>
			<path style="fill:#060633;" d="M1507.572,1096.367c-0.883,1.457-0.751,3.164,0.297,3.812c1.048,0.648,2.613-0.009,3.497-1.467
				c0.884-1.457,0.752-3.163-0.296-3.812C1510.022,1094.253,1508.457,1094.91,1507.572,1096.367z"/>
		</g>
		<g>
			<g>
				<path style="fill:#020202;" d="M1487.28,1114.31c-4.266,0-10.704-1.258-14.527-8.012c-0.136-0.238-0.052-0.542,0.188-0.678
					c0.242-0.136,0.545-0.051,0.679,0.188c5.688,10.05,17.59,7.126,17.708,7.096c0.268-0.069,0.537,0.093,0.605,0.357
					c0.068,0.267-0.092,0.538-0.357,0.606C1491.528,1113.879,1489.776,1114.31,1487.28,1114.31z"/>
			</g>
			<g>
				<path style="fill:#020202;" d="M1471.741,1108.05c-0.051,0-0.104-0.008-0.156-0.024c-0.261-0.087-0.402-0.368-0.316-0.629
					c0.411-1.242,1.51-2.384,3.269-3.395l0.087-0.052c0.231-0.146,0.538-0.082,0.688,0.146c0.148,0.229,0.09,0.531-0.136,0.684
					c-0.023,0.015-0.071,0.044-0.143,0.085c-1.918,1.103-2.592,2.155-2.819,2.845
					C1472.145,1107.917,1471.95,1108.05,1471.741,1108.05z"/>
			</g>
		</g>
		<g>
			
				<rect x="1529.854" y="1213.362" transform="matrix(0.9499 -0.3125 0.3125 0.9499 -306.5078 539.8076)" style="fill:#2F1A31;" width="2.182" height="25.692"/>
		</g>
		<g>
			<path style="fill:#FFFFFF;" d="M1511.561,1120.501c-2.561,0-4.868-0.957-6.738-2.81c-5.982-5.928-5.7-19.663,0.629-30.62
				c3.896-6.744,9.363-11.19,14.621-11.895c3.137-0.422,5.964,0.517,8.178,2.711c5.983,5.928,5.701,19.663-0.629,30.62
				c-3.896,6.744-9.362,11.19-14.621,11.895C1512.513,1120.469,1512.031,1120.501,1511.561,1120.501z M1521.495,1076.559
				c-0.401,0-0.811,0.028-1.226,0.084c-4.809,0.644-9.868,4.819-13.537,11.17c-6.015,10.41-6.404,23.344-0.869,28.828
				c1.876,1.859,4.276,2.651,6.94,2.296c4.809-0.644,9.868-4.819,13.536-11.169c6.016-10.411,6.405-23.344,0.87-28.828
				C1525.626,1077.369,1523.669,1076.559,1521.495,1076.559z"/>
		</g>
		<g style="opacity:0.3;">
			<path style="fill:#FFFFFF;" d="M1469.815,1070.971c-5.125,10.898-3.708,24.157,3.165,29.615c6.872,5.458,16.6,1.049,21.725-9.85
				s3.708-24.158-3.165-29.615C1484.667,1055.662,1474.94,1060.072,1469.815,1070.971z"/>
		</g>
		<g style="opacity:0.3;">
			<path style="fill:#FFFFFF;" d="M1504.942,1087.947c-5.144,10.949-4.448,24.234,1.552,29.674
				c6.002,5.439,15.037,0.973,20.181-9.977s4.448-24.234-1.553-29.674C1519.12,1072.53,1510.086,1076.997,1504.942,1087.947z"/>
		</g>
		<g>
			<path style="fill:#FFFFFF;" d="M1480.676,1103.514c-2.687,0-5.226-0.891-7.466-2.641c-7.591-5.927-9.265-20.212-3.731-31.844
				c3.228-6.784,8.238-11.421,13.748-12.722c3.782-0.895,7.398-0.104,10.455,2.282c7.59,5.928,9.264,20.213,3.729,31.845
				c-3.227,6.784-8.238,11.421-13.749,12.722C1482.652,1103.396,1481.653,1103.514,1480.676,1103.514z M1486.199,1057.433
				c-0.863,0-1.741,0.104-2.632,0.314c-4.997,1.179-9.765,5.635-12.753,11.918c-5.253,11.041-3.77,24.518,3.307,30.042
				c2.691,2.101,5.871,2.796,9.202,2.01c4.996-1.18,9.764-5.635,12.753-11.918c5.252-11.041,3.77-24.518-3.306-30.042
				C1490.799,1058.217,1488.563,1057.433,1486.199,1057.433z"/>
		</g>
		<g>
			<path style="fill:#FFFFFF;" d="M1505.82,1092.61c-0.413,0-0.821-0.184-1.093-0.536c-0.129-0.164-2.997-3.719-9.234-3.873
				c-0.763-0.02-1.365-0.652-1.347-1.415s0.671-1.339,1.415-1.347c7.628,0.189,11.207,4.757,11.355,4.951
				c0.464,0.606,0.348,1.473-0.258,1.936C1506.408,1092.518,1506.113,1092.61,1505.82,1092.61z"/>
		</g>
	</g>
	<g>
		<g>
			<g>
				<path style="fill:#F7B686;" d="M967.673,899.511c0,0-56.19,72.604-52.371,128.731c3.819,56.127,70.373,11.266,70.373,11.266
					l5.732-132.903L967.673,899.511z"/>
			</g>
			<g>
				<path style="fill:#2F1A31;" d="M890.685,1402.038c0,0,0.486,16.499-10.408,21.755c-10.895,5.255-42.969,11.211-30.32,21.146
					c7.258,5.7,39.684-0.009,48.898-0.512c9.216-0.503,18.087,3.041,24.599-3.5c7.164-7.196-2.213-40.557-2.213-40.557
					s-7.727,4.577-14.889,4.78C896.031,1405.446,890.685,1402.038,890.685,1402.038z"/>
			</g>
			<g>
				<path style="fill:#2F1A31;" d="M790.298,1401.933c0,0,0.487,16.498-10.407,21.754c-10.894,5.256-42.969,11.213-30.32,21.146
					c7.257,5.7,39.684-0.008,48.898-0.511c9.216-0.504,18.087,3.041,24.599-3.501c7.163-7.197-2.214-40.557-2.214-40.557
					s-7.726,4.576-14.888,4.781C795.645,1405.341,790.298,1401.933,790.298,1401.933z"/>
			</g>
			<g>
				<g>
					<path style="fill:#436E8E;" d="M778.349,1374.678c8.159-108.087,10.081-181.018,44.284-227.873
						c37.434-51.282,137.793-87.552,176.49-89.815c63.107-3.688,92.843,5.705,92.843,5.705
						c47.368,98.502-26.829,111.57-81.711,114.265c-1.813,0.089-3.633,0.19-5.46,0.305c-33.229,2.094-92.309,10.533-114.67,43.551
						c-17.706,26.145-29.995,62.85-35.178,157.527c-0.993,18.168-16.234,32.258-34.422,31.76
						C820.525,1410.102,775.414,1413.552,778.349,1374.678z"/>
				</g>
			</g>
			<g>
				<g>
					<path style="fill:#436E8E;" d="M867.917,1380.244c-1.075-108.389-4.44-163.724,28.092-211.756
						c20.9-30.859,52.33-54.152,93.419-69.232c29.323-10.763,63.815-17.368,102.512-19.632
						c63.106-3.689,91.463-11.312,91.463-11.312c51.073,126.092-135.749,99.323-184.385,153.044
						c-21.193,23.409-47.451,67.927-52.633,162.604c-0.994,18.168-16.234,32.259-34.422,31.76
						C911.963,1415.72,868.31,1419.875,867.917,1380.244z"/>
				</g>
			</g>
			<g>
				<path style="fill:#020202;" d="M868.228,1273.786l-0.725-0.034c0.033-0.648,3.245-65.092,14.082-87.682
					c13.712-28.584,53.467-58.417,94.528-70.938l0.211,0.693c-40.885,12.467-80.454,42.141-94.087,70.557
					C871.465,1208.843,868.26,1273.139,868.228,1273.786z"/>
			</g>
			<g>
				<path style="fill:#96A7E2;" d="M1138.636,868.114c0,0-26.847-45.891-88.735-31.808c-61.888,14.082-87.104,77.293-91.536,229.092
					c0,0,57.296-2.104,207.831,47.826c17.83,5.914,43.985,1.224,34.83-29.152C1184.008,1027.609,1167.523,914.986,1138.636,868.114z
					"/>
			</g>
			<g>
				<path style="fill:#96A7E2;" d="M1206.718,881.516l-63.659,11.965c0,0-111.316,32.922-142.479,33.182
					c-31.162,0.261-44.059-22.532-44.059-22.532s25.134-42.661,77.811-62.79c4.947-1.898,10.132-3.586,15.567-5.029
					c9.124-2.415,18.397-4.53,27.68-4.636C1182.659,830.469,1206.718,881.516,1206.718,881.516z"/>
			</g>
			<g>
				<path style="fill:#2F1A31;" d="M1206.718,881.516c1.377,5.018-11.967,13.393-29.804,18.704
					c-17.838,5.312-33.415,5.549-34.793,0.53c-1.377-5.019,11.967-13.392,29.805-18.703
					C1189.763,876.734,1205.34,876.497,1206.718,881.516z"/>
			</g>
			<g>
				<path style="fill:#F7B686;" d="M1077.469,831.684c-6.801,0.554-13.385-2.529-17.205-8.182l-11.974-17.71l-3.474-5.141
					l-20.432-30.225l8.942,33.647l5.371,20.195l1.53,5.758c1.249,4.697-1.279,9.545-5.818,11.282l-0.079,0.03
					c-1.742,4.582-3.642,13.581,7.396,14.914c12.97,1.567,30.921-11.819,35.851-24.579
					C1077.541,831.678,1077.505,831.68,1077.469,831.684z"/>
			</g>
			<g>
				<path style="fill:#74A1BD;" d="M1061.877,757.481c0,0-0.257,5.851,5.144,16.713c7.9,15.894-9.954,26.548-15.774,22.691
					c-0.721-0.478-5.344-29.188-5.344-29.188l5.44-4.809L1061.877,757.481z"/>
			</g>
			<g>
				<path style="fill:#2F1A31;" d="M1048.218,805.22c0.03,0.19,0.054,0.381,0.072,0.572c1.277,11.151-9.51,18.525-9.51,18.525
					l-0.082-0.048l-5.371-20.195c3.347-2.001,8.212-4.329,11.489-3.423C1046.529,801.124,1047.809,802.479,1048.218,805.22z"/>
			</g>
			<g>
				<path style="fill:#F7B686;" d="M991.821,782.269c-4.153-21.839,6.833-42.272,24.535-45.637
					c17.702-3.366,35.418,11.611,39.57,33.45c4.151,21.84-6.834,42.273-24.536,45.638
					C1013.69,819.086,995.972,804.109,991.821,782.269z"/>
			</g>
			<g>
				<path style="fill:#74A1BD;" d="M1005.408,748.236c1.12,1.045-0.057,22.348,38.555,20.041
					c38.611-2.307,7.279-43.727-20.726-39.475c-40.437,6.141-41.149,34.249-35.444,43.231
					C993.498,781.017,1005.408,748.236,1005.408,748.236z"/>
			</g>
			<g>
				<path style="fill:#74A1BD;" d="M1058.741,712.185c0,0-14.776,14.544,0.272,22.728s51.746,6.039,45.399,25.884
					c-6.349,19.844-9.746,48.101,8.467,48.09c18.214-0.011,29.029-3.447,38.852,9.182c9.821,12.629,40.08-2.098,34.31-18.258
					c-5.771-16.159,18.791-36.015,4.158-49.108c-14.633-13.096-45.816-20.974-56.777-39.598
					C1122.46,692.479,1070.769,700.926,1058.741,712.185z"/>
			</g>
			<g>
				<path style="fill:#74A1BD;" d="M1038.576,762.59c0,0,18.488,13.31,16.303,30.924c0,0,7.077-11.459,6.582-15.14
					c-0.494-3.682-5.37-16.388-5.37-16.388L1038.576,762.59z"/>
			</g>
			<g>
				<path style="fill:#F7B686;" d="M1052.773,776.862c-2.972,4.156-7.98,5.477-11.188,2.949c-3.208-2.528-3.399-7.947-0.428-12.104
					c2.972-4.157,7.981-5.479,11.188-2.95C1055.555,767.286,1055.745,772.706,1052.773,776.862z"/>
			</g>
			<g>
				<path style="fill:#FFFFFF;" d="M1151.084,818.24c-4.743-17.842-15.26-18.645-26.393-19.497
					c-4.415-0.338-8.981-0.687-13.337-2.082c-2.073-0.663-3.524-1.815-4.314-3.423c-1.976-4.019,0.316-10.354,2.969-17.69
					c3.865-10.686,8.246-22.797,1.709-32.198c-12.661-18.21-31.819-19.001-32.012-19.007c-11.153,0.705-16.927-0.547-17.591-3.827
					c-0.671-3.311,4.548-6.994,6.474-7.668c15.606-5.457,33.65-7.66,59.791,12.998c20.617,16.294,19.201,25.464,17.408,37.072
					c-0.396,2.563-0.805,5.212-0.993,8.091c-0.148,2.278,0.328,3.966,1.461,5.159c2.519,2.659,8.136,2.594,13.575,2.528
					c7.031-0.082,14.298-0.168,16.255,5.419c1.532,4.37-0.21,9.565-1.895,14.589c-1.727,5.148-3.358,10.01-1.351,13.411
					c1.312,2.223,4.106,3.698,8.547,4.511l-0.241,1.318c-4.846-0.886-7.939-2.569-9.46-5.146c-2.319-3.929-0.593-9.073,1.232-14.521
					c1.614-4.81,3.281-9.782,1.902-13.719c-1.64-4.679-8.112-4.604-14.975-4.521c-5.724,0.068-11.642,0.137-14.565-2.947
					c-1.382-1.459-1.996-3.535-1.823-6.17c0.192-2.938,0.605-5.616,1.006-8.207c1.725-11.178,3.089-20.006-16.915-35.816
					c-25.633-20.26-43.273-18.117-58.518-12.785c-1.853,0.647-6.051,3.924-5.603,6.137c0.228,1.122,2.266,3.632,16.256,2.753
					c0.261,0.006,20.093,0.823,33.134,19.581c6.934,9.972,2.23,22.973-1.548,33.42c-2.55,7.049-4.751,13.135-3.027,16.643
					c0.632,1.286,1.783,2.182,3.521,2.738c4.205,1.347,8.692,1.69,13.029,2.021c11.623,0.889,22.6,1.727,27.586,20.49
					L1151.084,818.24z"/>
			</g>
			<g>
				<path style="fill:#FFFFFF;" d="M1037.526,756.443c-11.976,0-19.674-8.249-19.759-8.342l0.9-0.826
					c0.092,0.1,9.273,9.911,23.066,7.59l0.201,1.206C1040.411,756.328,1038.938,756.443,1037.526,756.443z"/>
			</g>
			<g>
				<g>
					<path style="fill:#6F4975;" d="M1002.5,806.093c-2.394,0.456-4.94,0.146-7.352-0.92c-3.893-1.72-7.085-5.216-8.758-9.59
						c-3.123-8.164-0.077-16.996,6.789-19.687c2.938-1.15,6.264-1.03,9.365,0.34c3.894,1.721,7.087,5.216,8.76,9.591
						c3.123,8.164,0.076,16.995-6.791,19.686C1003.86,805.769,1003.187,805.963,1002.5,806.093z M995.34,776.088
						c-0.639,0.121-1.266,0.301-1.874,0.539c-6.468,2.534-9.313,10.911-6.344,18.676c1.6,4.181,4.641,7.517,8.344,9.152
						c2.908,1.286,6.019,1.401,8.763,0.327c6.467-2.533,9.313-10.911,6.344-18.675c-1.6-4.181-4.641-7.518-8.345-9.154
						C999.965,775.953,997.578,775.661,995.34,776.088z"/>
				</g>
			</g>
			<g>
				<g>
					<path style="fill:#6F4975;" d="M1032.688,795.831c-2.395,0.456-4.939,0.146-7.351-0.919c-3.893-1.721-7.086-5.216-8.759-9.591
						c-3.123-8.164-0.077-16.995,6.79-19.686c2.938-1.149,6.264-1.031,9.364,0.34c3.894,1.72,7.087,5.216,8.76,9.591l0,0
						c3.123,8.164,0.077,16.994-6.79,19.686C1034.048,795.508,1033.373,795.701,1032.688,795.831z M1025.528,765.826
						c-0.64,0.121-1.266,0.301-1.874,0.539c-6.468,2.535-9.313,10.912-6.345,18.676c1.6,4.181,4.642,7.518,8.345,9.154
						c2.909,1.284,6.021,1.4,8.762,0.326c6.467-2.534,9.313-10.911,6.345-18.675l0,0c-1.599-4.182-4.642-7.519-8.345-9.154
						C1030.154,765.692,1027.768,765.4,1025.528,765.826z"/>
				</g>
			</g>
			<g>
				<g>
					<path style="fill:#6F4975;" d="M1007.785,788.015c-0.121,0.023-0.25-0.011-0.345-0.102c-0.156-0.149-0.161-0.397-0.012-0.554
						c0.148-0.155,3.733-3.817,11.149-4.107c0.217-0.009,0.398,0.16,0.407,0.377c0.008,0.217-0.158,0.4-0.376,0.407
						c-7.083,0.275-10.58,3.83-10.614,3.866C1007.935,787.963,1007.863,788.001,1007.785,788.015z"/>
				</g>
			</g>
			<g>
				<path style="fill:#DB6B49;" d="M1011.039,805.13c0,0,10.996-1.829,21.215-7.756c0,0,2.961,10.619-8.761,13.596
					C1016.678,812.701,1011.039,805.13,1011.039,805.13z"/>
			</g>
			<g>
				<path style="fill:#FFFFFF;" d="M1011.039,805.13c0,0,3.066,1.695,9.242,0.493c6.178-1.201,11.973-8.249,11.973-8.249
					S1019.749,803.507,1011.039,805.13z"/>
			</g>
			<g>
				<g>
					<path style="fill:#060633;" d="M1020.846,777.148c-0.225-0.017-0.438-0.137-0.568-0.341c-0.221-0.345-0.12-0.803,0.224-1.023
						c0.203-0.13,4.631-3.587,9.839,0.31c0.328,0.245,0.41,0.703,0.17,1.036c-0.239,0.333-0.658,0.332-1.036,0.171
						c-3.776-1.614-8.002-0.373-8.171-0.267C1021.16,777.123,1021,777.159,1020.846,777.148z"/>
				</g>
			</g>
			<g>
				<path style="fill:#060633;" d="M1028.138,784.063c0.387,1.729-0.318,3.356-1.572,3.637c-1.254,0.281-2.584-0.895-2.97-2.622
					c-0.386-1.729,0.317-3.356,1.572-3.637C1026.422,781.161,1027.752,782.334,1028.138,784.063z"/>
			</g>
			<g>
				<g>
					<path style="fill:#060633;" d="M995.544,785.896c-0.214,0.068-0.456,0.041-0.654-0.099c-0.335-0.235-0.418-0.696-0.183-1.032
						c0.139-0.197,2.915-5.08,9.215-3.461c0.398,0.102,0.646,0.494,0.552,0.894c-0.094,0.398-0.483,0.558-0.893,0.552
						c-4.107-0.054-7.542,2.704-7.656,2.867C995.826,785.753,995.692,785.847,995.544,785.896z"/>
				</g>
			</g>
			<g>
				<path style="fill:#060633;" d="M1004.921,789.512c1.015,1.451,0.984,3.225-0.069,3.961c-1.053,0.737-2.729,0.157-3.744-1.293
					c-1.016-1.451-0.984-3.226,0.068-3.962C1002.229,787.481,1003.906,788.06,1004.921,789.512z"/>
			</g>
			<g>
				<g>
					<path style="fill:#F7B686;" d="M1185.338,1016.072c-22.912,33.096-51.264,51.286-111.537,62.271l-2.307-38.593
						c73.475-26.951,81.58-114.615,77.817-136.762c-0.356-2.1,0.473-4.214,2.164-5.51c5.61-4.299,20.148-13.035,46.127-13.55
						c2.312-0.046,4.357,1.505,4.95,3.739C1213.422,928.604,1212.369,977.027,1185.338,1016.072z"/>
				</g>
			</g>
			<g style="opacity:0.3;">
				<path style="fill:#E08B65;" d="M1161.958,1027.7c-0.996,0-1.962-0.194-2.873-0.583c-4.762-2.033-6.435-8.896-3.73-15.298
					c1.546-3.661,4.316-6.593,7.409-7.843c2.132-0.859,4.255-0.89,6.14-0.084c4.762,2.033,6.437,8.896,3.731,15.298l0,0
					c-1.547,3.662-4.317,6.594-7.41,7.843C1164.123,1027.478,1163.023,1027.7,1161.958,1027.7z M1166.031,1005.402
					c-0.802,0-1.639,0.172-2.484,0.514c-2.589,1.046-4.931,3.557-6.266,6.718c-2.259,5.344-1.08,10.979,2.625,12.561
					c1.363,0.581,2.931,0.546,4.535-0.1c2.59-1.046,4.933-3.557,6.268-6.719l0,0c2.257-5.344,1.079-10.978-2.627-12.561
					C1167.438,1005.54,1166.749,1005.402,1166.031,1005.402z"/>
			</g>
			<g>
				<g>
					<path style="fill:#F7B686;" d="M1071.494,1039.751c0,0-35.77-2.036-45.006,5.636c-9.236,7.671-15.236,24.453-8.5,20.913
						c6.735-3.539,14.092-10.438,14.092-10.438s-15.023,15.479-9.883,17.426c5.143,1.945,18.079-11.643,18.079-11.643
						s-16.41,19.844-10.957,20.109c5.452,0.265,17.812-14.898,17.812-14.898s-14.529,19.073-8.189,19.233
						s11.905-15.841,17.047-13.895c5.142,1.945,19.863,13.161,27.016-0.471L1071.494,1039.751z"/>
				</g>
				<g>
					<path style="fill:#DD8964;" d="M1032.439,1056.119l-0.721-0.516c0.153-0.215,3.771-5.213,7.742-5.132l-0.022,0.886
						c-0.032,0-0.064,0-0.096,0C1035.896,1051.357,1032.475,1056.071,1032.439,1056.119z"/>
				</g>
				<g>
					<path style="fill:#DD8964;" d="M1040.643,1061.896l-0.731-0.503c0.145-0.209,3.588-5.132,9.089-6.092l0.152,0.874
						C1044.015,1057.071,1040.675,1061.848,1040.643,1061.896z"/>
				</g>
				<g>
					<path style="fill:#DD8964;" d="M1047.492,1067.113l-0.723-0.516c0.182-0.254,4.475-6.211,8.675-5.729l-0.098,0.88
						C1051.665,1061.354,1047.531,1067.056,1047.492,1067.113z"/>
				</g>
			</g>
			<g>
				<g>
					<path style="fill:#2F1A31;" d="M1032.951,1094.775h-118.66c-2.484,0-4.69-1.58-5.475-3.921l-24.658-73.644
						c-1.242-3.709,1.538-7.536,5.473-7.536h114.113c5.201,0,9.817,3.308,11.458,8.207l23.224,69.357
						C1039.668,1090.947,1036.888,1094.775,1032.951,1094.775z"/>
				</g>
				<g>
					<path style="fill:#2F1A31;" d="M1025.504,1094.775H906.843c-2.484,0-4.69-1.58-5.475-3.921l-24.658-73.644
						c-1.242-3.709,1.538-7.536,5.473-7.536h114.114c5.2,0,9.816,3.308,11.457,8.207l23.225,69.357
						C1032.221,1090.947,1029.44,1094.775,1025.504,1094.775z"/>
				</g>
				<g>
					<path style="fill:#DEEBE9;" d="M942.36,1049.815c0-2.796,3.225-3.937,6.041-3.937c2.815,0,7.412,3.069,7.384,6.986
						c-0.031,4.229-3.336,4.778-6.151,4.778C946.818,1057.644,942.36,1053.374,942.36,1049.815z"/>
				</g>
				<g>
					<path style="fill:#2F1A31;" d="M1069.162,1084.368H906.783v10.407h165.756c1.928,0,3.49-1.563,3.49-3.49v-0.05
						C1076.029,1087.442,1072.954,1084.368,1069.162,1084.368z"/>
				</g>
				<g>
					<path style="fill:#436E8E;" d="M1017.067,1046.906c-0.059-0.22-5.88-22.053-9.649-28.837c-3.716-6.686-8.293-8.01-8.34-8.022
						l0.205-0.744c0.199,0.055,4.937,1.425,8.809,8.393c3.816,6.867,9.481,28.112,9.721,29.014L1017.067,1046.906z"/>
				</g>
				<g>
					<path style="fill:#436E8E;" d="M1034.604,1084.754c-4.398,0-5.494-1.946-5.538-2.029l-9.275-27.679l0.732-0.244l9.249,27.618
						l0,0c0.011,0,1.002,1.563,4.833,1.563V1084.754z"/>
				</g>
			</g>
		</g>
	</g>
	<g>
		<g>
			<path style="fill:#2F1A31;" d="M1216.786,401.582c0,0-4.743,41.778,4.815,41.425c9.561-0.354,28.943-18.236,66.875-14.119
				c37.93,4.118,84.202,13.806,113.787-35.125c29.58-48.933-34.077-65.139-34.077-65.139L1216.786,401.582L1216.786,401.582z"/>
		</g>
		<g>
			<polygon style="fill:#6F4975;" points="1297.696,400.893 1105.659,411.009 1101.928,402.369 1289.584,272.2 1475.748,255.986 
				1479.09,263.717 1297.696,400.893 			"/>
		</g>
		<g>
			<g>
				<path style="fill:#E28569;" d="M1172.765,551.288c0.979-3.764,4.66-5.964,8.221-4.914c3.562,1.051,5.655,4.954,4.676,8.721
					c-0.977,3.764-4.658,5.963-8.22,4.915C1173.881,558.956,1171.787,555.053,1172.765,551.288L1172.765,551.288z"/>
			</g>
			<g>
				<path style="fill:#E28569;" d="M1178.534,553.214c-6.925-0.523-7.87,66.114-7.87,66.114s4.533,2.214,6.745,1.67
					c2.213-0.543,3.255-9.549,3.255-9.549l0.309,9.433c0,0,7.59,0.227,10.201-1.746
					C1191.174,619.136,1189.488,554.04,1178.534,553.214L1178.534,553.214z"/>
			</g>
		</g>
		<g>
			<path style="fill:#E28569;" d="M1176.051,548.321l-1.031-135.918c-1.406-12.336,4.072-24.448,14.268-31.536l83.393-57.978
				c1.829-1.272,4.345-0.819,5.617,1.012l0,0c0.634,0.914,0.408,2.168-0.506,2.803l-88.515,61.532
				c-6.811,4.734-10.466,12.828-9.517,21.066l1.159,140.608L1176.051,548.321z"/>
		</g>
	</g>
	<g style="opacity:0.5;">
		<path style="fill:#96A7E2;" d="M1371.037,797.677h-71.867c-8.228,0-14.897-6.67-14.897-14.898v-98.604
			c0-8.229,6.67-14.898,14.897-14.898h71.867c8.229,0,14.898,6.67,14.898,14.898v98.604
			C1385.936,791.007,1379.266,797.677,1371.037,797.677z"/>
	</g>
	<g>
		<path style="fill:#DEEBE9;" d="M1366.754,712.792h-62.499c-1.376,0-3.492-1.434-3.675-2.796c-0.375-2.798,2.295-3.597,3.671-3.597
			l62.503,1.391c1.376,0,2.501,1.126,2.501,2.5l0,0C1369.255,711.667,1368.13,712.792,1366.754,712.792z"/>
	</g>
	<g>
		<path style="fill:#DEEBE9;" d="M1350.52,701.049h-47.174c-1.039,0-2.637-1.151-2.774-2.247c-0.282-2.247,1.731-2.889,2.771-2.889
			l47.178,1.116c1.038,0,1.888,0.905,1.888,2.011l0,0C1352.407,700.146,1351.558,701.049,1350.52,701.049z"/>
	</g>
	<g>
		<path style="fill:#DEEBE9;" d="M1350.52,724.622h-47.174c-1.039,0-2.637-1.151-2.774-2.247c-0.282-2.247,1.731-2.889,2.771-2.889
			l47.178,1.117c1.038,0,1.888,0.904,1.888,2.01l0,0C1352.407,723.719,1351.558,724.622,1350.52,724.622z"/>
	</g>
	<g>
		<path style="fill:#DEEBE9;" d="M1366.754,759.938h-62.499c-1.376,0-3.492-1.433-3.675-2.797c-0.375-2.796,2.295-3.595,3.671-3.595
			l62.503,1.391c1.376,0,2.501,1.125,2.501,2.501l0,0C1369.255,758.813,1368.13,759.938,1366.754,759.938z"/>
	</g>
	<g>
		<path style="fill:#DEEBE9;" d="M1350.52,748.195h-47.174c-1.039,0-2.637-1.151-2.774-2.246c-0.282-2.248,1.731-2.89,2.771-2.89
			l47.178,1.118c1.038,0,1.888,0.903,1.888,2.009l0,0C1352.407,747.292,1351.558,748.195,1350.52,748.195z"/>
	</g>
	<g>
		<path style="fill:#DEEBE9;" d="M1350.52,771.769h-47.174c-1.039,0-2.637-1.151-2.774-2.247c-0.282-2.247,1.731-2.89,2.771-2.89
			l47.178,1.118c1.038,0,1.888,0.903,1.888,2.009l0,0C1352.407,770.865,1351.558,771.769,1350.52,771.769z"/>
	</g>
</g>
</svg>
